<svg width="1106" height="125" viewBox="0 0 1106 125" fill="none" xmlns="http://www.w3.org/2000/svg">
<path d="M80.5059 8.93933C80.5059 7.47591 81.7351 6.24664 83.1985 6.24664C84.662 6.24664 85.8912 7.47591 85.8912 8.93933C85.8912 10.4027 84.662 11.632 83.1985 11.632C81.7351 11.632 80.5059 10.4027 80.5059 8.93933ZM80.9742 12.9784H85.4815V27.993H80.9742V12.9784Z" fill="#A0AEC0"/>
<path d="M104.125 21.8173C104.125 25.5344 101.081 27.9637 97.3351 27.9637H88.4961V6.94904H96.7205C100.379 6.94904 103.364 9.31977 103.364 12.949C103.364 14.7051 102.662 16.0807 101.52 17.0759C103.101 18.071 104.125 19.6807 104.125 21.8173ZM93.2961 11.4564V15.1734H96.7205C97.8034 15.1734 98.5644 14.3832 98.5644 13.3003C98.5644 12.2173 97.8327 11.4271 96.7205 11.4271H93.2961V11.4564ZM99.3254 21.4661C99.3254 20.2954 98.5351 19.4466 97.3351 19.4466H93.2961V23.4856H97.3351C98.5351 23.4856 99.3254 22.6368 99.3254 21.4661Z" fill="#A0AEC0"/>
<path d="M121.861 12.9783V27.993H117.354V26.5588C116.359 27.7003 114.895 28.4027 112.876 28.4027C108.954 28.4027 105.705 24.9491 105.705 20.471C105.705 15.993 108.954 12.5393 112.876 12.5393C114.895 12.5393 116.359 13.2417 117.354 14.3832V12.9783H121.861ZM117.354 20.471C117.354 18.2174 115.861 16.8125 113.783 16.8125C111.705 16.8125 110.212 18.2174 110.212 20.471C110.212 22.7247 111.705 24.1296 113.783 24.1296C115.832 24.1296 117.354 22.7247 117.354 20.471Z" fill="#A0AEC0"/>
<path d="M139.248 18.7735V27.993H134.74V19.4174C134.74 17.5442 133.57 16.6954 132.135 16.6954C130.496 16.6954 129.355 17.6613 129.355 19.7978V27.993H124.848V12.9783H129.355V14.3832C130.174 13.271 131.667 12.5393 133.657 12.5393C136.672 12.5393 139.248 14.7052 139.248 18.7735Z" fill="#A0AEC0"/>
<path d="M146.71 11.5734V15.6417H154.525V20.2661H146.71V27.9929H141.91V6.94904H154.671V11.5734H146.71Z" fill="#A0AEC0"/>
<path d="M156.516 8.93933C156.516 7.47591 157.745 6.24664 159.208 6.24664C160.672 6.24664 161.901 7.47591 161.901 8.93933C161.901 10.4027 160.672 11.632 159.208 11.632C157.745 11.632 156.516 10.4027 156.516 8.93933ZM156.955 12.9784H161.462V27.993H156.955V12.9784Z" fill="#A0AEC0"/>
<path d="M173.52 12.6564V17.7783C171.647 17.4856 169.013 18.2173 169.013 21.2027V27.993H164.506V12.9783H169.013V15.6417C169.599 13.6222 171.618 12.6564 173.52 12.6564Z" fill="#A0AEC0"/>
<path d="M186.984 23.4857C186.984 26.9393 183.969 28.4028 180.75 28.4028C177.735 28.4028 175.452 27.2613 174.281 24.832L178.174 22.6076C178.554 23.7491 179.403 24.393 180.72 24.393C181.803 24.393 182.33 24.071 182.33 23.4564C182.33 21.8174 174.954 22.6662 174.954 17.4857C174.954 14.2076 177.706 12.5686 180.837 12.5686C183.267 12.5686 185.432 13.6515 186.691 15.7881L182.857 17.8662C182.447 17.0759 181.832 16.5491 180.837 16.5491C180.047 16.5491 179.579 16.8418 179.579 17.3979C179.579 19.0662 186.984 17.9247 186.984 23.4857Z" fill="#A0AEC0"/>
<path d="M194.944 17.2808V22.6076C194.944 23.8954 196.057 24.0125 198.047 23.8954V27.993C192.164 28.6076 190.437 26.8223 190.437 22.6076V17.2808H188.037V12.9491H190.437V10.1101L194.944 8.76373V12.9784H198.047V17.3101H194.944V17.2808Z" fill="#A0AEC0"/>
<path d="M68.9449 18.5979L64.3205 21.2613L59.14 24.2467L49.8034 29.632L49.3059 29.9246C49.2766 29.9246 49.2766 29.9539 49.2473 29.9539C48.3108 30.4807 47.1986 30.8027 46.0571 30.8027C44.74 30.8027 43.54 30.4222 42.5156 29.7491C42.5742 30.8905 42.9254 32.0027 43.5107 32.9685C44.1254 33.9929 45.0034 34.871 46.0571 35.4856C47.1108 36.1003 48.3108 36.4222 49.5108 36.4515C49.54 36.4515 49.5986 36.4515 49.6278 36.4515C50.8571 36.4515 52.0864 36.1295 53.1986 35.4856L60.7498 31.1246L62.74 29.9832L71.7546 24.7735C71.8717 24.715 71.9888 24.6272 72.1058 24.5394C72.1058 24.4223 72.1058 24.2759 72.1058 24.1589C72.1351 21.7881 70.8473 19.7101 68.9449 18.5979Z" fill="#A0AEC0"/>
<path d="M74.448 15.1149C73.8334 14.0028 72.8968 13.0662 71.7846 12.393L62.2431 6.89056L53.17 1.6808C53.0236 1.593 52.8773 1.50519 52.7309 1.44666C50.6529 2.52958 49.2188 4.69544 49.2188 7.21251L49.7748 7.53446L58.9358 12.832L64.2919 15.9052L68.7992 18.5101C68.8578 18.5393 68.887 18.5686 68.9456 18.5979C70.848 19.7393 72.1358 21.8174 72.1358 24.1881C72.1358 24.3052 72.1358 24.4515 72.1358 24.5686C73.1016 23.9247 73.8919 23.0759 74.448 22.0808C75.0334 21.0271 75.3553 19.8271 75.3553 18.6271C75.326 17.3686 75.0334 16.1686 74.448 15.1149Z" fill="#A0AEC0"/>
<path d="M49.5107 0.714966C48.3107 0.744234 47.1107 1.06619 46.0571 1.68082C45.0034 2.29545 44.1254 3.14424 43.5107 4.19789C42.8375 5.31009 42.4863 6.56863 42.4863 7.85643V18.8906V29.3101C42.4863 29.4564 42.4863 29.6028 42.4863 29.7491C43.5107 30.4222 44.7107 30.8027 46.0278 30.8027C47.1985 30.8027 48.2815 30.51 49.218 29.9539V18.6564V7.18326C49.218 4.66619 50.6229 2.50033 52.7302 1.41741C51.7351 0.949114 50.6229 0.714966 49.5107 0.714966Z" fill="#A0AEC0"/>
<mask id="mask0_1_77" style="mask-type:luminance" maskUnits="userSpaceOnUse" x="339" y="0" width="139" height="37">
<path d="M477.73 0.51001H339.568V36.51H477.73V0.51001Z" fill="white"/>
</mask>
<g mask="url(#mask0_1_77)">
<path d="M391.683 29.011V8.00952H389.973V29.0088L391.683 29.011ZM402.455 29.3418C403.66 29.3759 404.857 29.1434 405.962 28.6611C407.067 28.1789 408.051 27.4586 408.845 26.5518L407.675 25.5325C407.017 26.2474 406.212 26.8127 405.317 27.1904C404.422 27.5681 403.456 27.7493 402.484 27.7218C401.735 27.7656 400.986 27.6574 400.28 27.4039C399.575 27.1503 398.928 26.7566 398.378 26.2463C397.829 25.7361 397.388 25.12 397.084 24.4351C396.779 23.7502 396.616 23.0106 396.604 22.261H409.806C409.998 21.1983 409.946 20.1058 409.651 19.0666C409.357 18.0275 408.83 17.0691 408.11 16.2647C407.389 15.4602 406.495 14.8309 405.494 14.4246C404.493 14.0183 403.413 13.8458 402.335 13.9203C401.327 13.886 400.323 14.0629 399.387 14.4396C398.451 14.8162 397.604 15.3842 396.901 16.1073C396.198 16.8304 395.653 17.6924 395.302 18.6383C394.952 19.584 394.803 20.5927 394.865 21.5995C394.807 22.6181 394.963 23.6375 395.322 24.5925C395.681 25.5475 396.236 26.417 396.95 27.1455C397.665 27.8739 398.523 28.4454 399.471 28.8231C400.419 29.2009 401.435 29.3768 402.455 29.3395V29.3418ZM408.154 20.7603H396.604C396.631 20.0339 396.802 19.3201 397.107 18.6603C397.412 18.0006 397.845 17.4079 398.381 16.9167C398.917 16.4254 399.545 16.0455 400.229 15.7988C400.912 15.5521 401.638 15.4436 402.365 15.4795C403.099 15.4112 403.84 15.497 404.539 15.7314C405.239 15.9658 405.882 16.3437 406.426 16.8407C406.971 17.3378 407.406 17.9432 407.704 18.6181C408.002 19.293 408.155 20.0226 408.154 20.7603ZM414.516 29.011V20.6995C414.467 20.0487 414.552 19.3947 414.765 18.778C414.979 18.1613 415.318 17.5951 415.759 17.1143C416.201 16.6334 416.736 16.2483 417.332 15.9826C417.928 15.7169 418.573 15.5763 419.225 15.5695C421.986 15.5695 423.517 17.3088 423.517 20.4903V29.011H425.226V20.6995C425.178 20.0462 425.265 19.3899 425.481 18.7713C425.697 18.1528 426.038 17.5854 426.482 17.1042C426.927 16.6231 427.466 16.2386 428.066 15.9745C428.665 15.7105 429.313 15.5727 429.968 15.5695C432.729 15.5695 434.259 17.3088 434.259 20.4903V29.011H435.969V20.371C436.071 19.5435 435.99 18.7037 435.732 17.9108C435.475 17.1179 435.046 16.3913 434.477 15.782C433.907 15.1727 433.211 14.6957 432.438 14.3845C431.664 14.0733 430.832 13.9356 429.999 13.981C428.86 13.9633 427.739 14.2735 426.771 14.8746C425.802 15.4758 425.028 16.3426 424.538 17.3718C424.144 16.317 423.421 15.4173 422.475 14.8064C421.529 14.1956 420.412 13.9061 419.288 13.981C418.308 13.9609 417.339 14.1999 416.481 14.674C415.622 15.1481 414.904 15.8404 414.399 16.681L414.365 14.1903H412.805V29.011H414.516ZM443.289 29.011V8.04101H440.197V29.011H443.289ZM448.568 11.7895C448.823 11.801 449.078 11.7592 449.316 11.6669C449.554 11.5745 449.77 11.4335 449.951 11.253C450.131 11.0724 450.272 10.8562 450.365 10.6181C450.457 10.3801 450.499 10.1254 450.487 9.87026C450.487 9.36095 450.285 8.8725 449.925 8.51236C449.565 8.15222 449.076 7.94989 448.567 7.94989C448.057 7.94989 447.569 8.15222 447.209 8.51236C446.848 8.8725 446.646 9.36095 446.646 9.87026C446.635 10.1255 446.677 10.3804 446.769 10.6187C446.862 10.8569 447.003 11.0732 447.184 11.2538C447.364 11.4344 447.581 11.5753 447.819 11.6676C448.058 11.7598 448.313 11.8013 448.568 11.7895ZM450.098 29.0088V14.1588H447.009V29.0088H450.098ZM459.279 29.4588C463.088 29.4588 465.579 27.5395 465.579 24.7788C465.579 20.938 462.04 20.3688 459.308 20.128C457.389 19.9188 456.128 19.4688 456.097 18.238C456.097 17.0972 457.267 16.4672 459.128 16.4672C459.857 16.4144 460.589 16.5093 461.28 16.7463C461.971 16.9833 462.606 17.3575 463.149 17.8465L464.889 15.8058C463.312 14.4435 461.269 13.7444 459.189 13.855C456.428 13.855 453.039 15.0543 453.039 18.3258C453.039 21.5972 456.308 22.5265 459.07 22.765C461.23 22.9743 462.49 23.485 462.49 24.745C462.49 26.185 460.78 26.725 459.34 26.725C458.372 26.7262 457.414 26.5331 456.522 26.157C455.63 25.7809 454.823 25.2296 454.148 24.5358L452.528 26.725C453.377 27.6564 454.425 28.3856 455.593 28.8591C456.761 29.3326 458.021 29.5383 459.279 29.461V29.4588ZM474.52 29.1888C475.625 29.205 476.721 28.98 477.731 28.5295L476.831 25.8903C476.251 26.2119 475.602 26.3872 474.94 26.401C473.5 26.401 472.809 25.5303 472.809 23.971V16.9195H477.159V14.251H472.839V9.96026L469.718 10.291V14.251H466.869V16.9195H469.72V23.9688C469.72 27.391 471.43 29.191 474.52 29.191V29.1888Z" fill="#A0AEC0"/>
<path d="M368.072 0.51001C370.061 0.51001 371.968 1.30011 373.375 2.70649C374.781 4.11288 375.572 6.02035 375.572 8.00926V29.0085C375.572 29.9935 375.378 30.9689 375.001 31.879C374.625 32.7891 374.072 33.6161 373.376 34.3128C372.679 35.0093 371.852 35.5618 370.942 35.9389C370.032 36.316 369.057 36.51 368.072 36.51H357.57C352.796 36.51 348.217 34.6136 344.841 31.2379C341.465 27.8623 339.568 23.2839 339.568 18.51V8.00926C339.568 6.02035 340.359 4.11288 341.765 2.70649C343.172 1.30011 345.079 0.51001 347.068 0.51001H368.072ZM351.569 11.0108C351.171 11.0108 350.789 11.1689 350.507 11.4503C350.226 11.7318 350.068 12.1135 350.068 12.5115V20.0108C350.068 21.6023 350.7 23.1286 351.826 24.2539C352.951 25.3793 354.477 26.0115 356.069 26.0115H363.569C363.771 26.0193 363.972 25.9863 364.161 25.9145C364.35 25.8427 364.522 25.7335 364.668 25.5934C364.813 25.4534 364.929 25.2854 365.008 25.0996C365.087 24.9137 365.128 24.7139 365.128 24.5119C365.128 24.3099 365.087 24.11 365.008 23.9242C364.929 23.7383 364.813 23.5704 364.668 23.4303C364.522 23.2903 364.35 23.1811 364.161 23.1093C363.972 23.0374 363.771 23.0045 363.569 23.0122H356.069C355.675 23.0122 355.285 22.9346 354.921 22.7837C354.557 22.6329 354.226 22.4117 353.947 22.133C353.669 21.8543 353.448 21.5233 353.297 21.1592C353.147 20.7951 353.069 20.4048 353.07 20.0108V12.5093C353.069 12.1116 352.911 11.7305 352.629 11.4495C352.348 11.1686 351.966 11.0108 351.569 11.0108ZM362.07 17.0093H357.57C357.172 17.0093 356.79 17.1674 356.509 17.4488C356.227 17.7303 356.069 18.112 356.069 18.51C356.069 18.908 356.227 19.2897 356.509 19.5712C356.79 19.8526 357.172 20.0108 357.57 20.0108H362.07C362.272 20.0186 362.474 19.9856 362.662 19.9137C362.851 19.8419 363.023 19.7327 363.169 19.5927C363.315 19.4527 363.43 19.2847 363.509 19.0988C363.589 18.913 363.629 18.7131 363.629 18.5111C363.629 18.3092 363.589 18.1093 363.509 17.9234C363.43 17.7376 363.315 17.5696 363.169 17.4296C363.023 17.2896 362.851 17.1804 362.662 17.1085C362.474 17.0367 362.272 17.0037 362.07 17.0115V17.0093ZM363.571 11.0085H357.57C357.172 11.0085 356.79 11.1666 356.509 11.4481C356.227 11.7295 356.069 12.1112 356.069 12.5093C356.069 12.9073 356.227 13.289 356.509 13.5705C356.79 13.8519 357.172 14.01 357.57 14.01H363.571C363.773 14.0178 363.974 13.9848 364.163 13.913C364.352 13.8412 364.524 13.7319 364.67 13.5919C364.815 13.4519 364.931 13.2839 365.01 13.0981C365.089 12.9123 365.13 12.7124 365.13 12.5104C365.13 12.3084 365.089 12.1085 365.01 11.9227C364.931 11.7368 364.815 11.5689 364.67 11.4288C364.524 11.2888 364.352 11.1796 364.163 11.1078C363.974 11.036 363.773 11.0029 363.571 11.0108V11.0085Z" fill="#A0AEC0"/>
</g>
<path d="M674.006 25.1223V11.8427H676.357L680.361 22.808L684.42 11.8427H686.762V25.1223H685.008V14.3866L681.16 25.1223H679.571L675.751 14.4876V25.1223H674.006ZM692.498 25.306C691.886 25.306 691.344 25.1988 690.873 24.9845C690.401 24.7641 690.031 24.4488 689.762 24.0386C689.498 23.6284 689.367 23.1325 689.367 22.5509C689.367 21.4978 689.734 20.7141 690.469 20.1998C691.204 19.6855 692.382 19.41 694.005 19.3733L695.704 19.3274V18.5835C695.704 18.0019 695.529 17.5427 695.18 17.206C694.831 16.8631 694.289 16.6917 693.555 16.6917C693.009 16.6978 692.529 16.8264 692.113 17.0774C691.702 17.3284 691.436 17.7386 691.314 18.308H689.817C689.854 17.6896 690.028 17.1692 690.34 16.7468C690.653 16.3182 691.087 15.9937 691.644 15.7733C692.208 15.5529 692.872 15.4427 693.637 15.4427C694.464 15.4427 695.149 15.559 695.694 15.7917C696.245 16.0243 696.655 16.3672 696.925 16.8202C697.201 17.2733 697.338 17.8304 697.338 18.4917V25.1223H695.887L695.768 23.3406C695.401 24.0815 694.932 24.5958 694.363 24.8835C693.799 25.1651 693.178 25.306 692.498 25.306ZM693.013 24.0845C693.331 24.0845 693.646 24.0264 693.959 23.91C694.277 23.7937 694.568 23.6376 694.831 23.4417C695.094 23.2396 695.302 23.0162 695.456 22.7713C695.615 22.5203 695.697 22.2631 695.704 21.9998V20.3743L694.289 20.4019C693.567 20.4141 692.961 20.4876 692.471 20.6223C691.987 20.757 691.623 20.9682 691.378 21.256C691.139 21.5437 691.02 21.9202 691.02 22.3855C691.02 22.9182 691.204 23.3345 691.571 23.6345C691.944 23.9345 692.425 24.0845 693.013 24.0845ZM708.578 25.1223H706.778L703.802 20.356L701.929 22.2937V25.1223H700.239V11.4753H701.929V20.3743L706.392 15.6264H708.339L704.914 19.2447L708.578 25.1223ZM711.389 20.7692C711.389 21.3692 711.487 21.9141 711.682 22.4039C711.884 22.8876 712.188 23.2733 712.592 23.5611C713.002 23.8488 713.513 23.9927 714.125 23.9927C714.731 23.9927 715.252 23.8519 715.687 23.5702C716.127 23.2886 716.409 22.8815 716.531 22.3488H718.139C718.022 22.9917 717.765 23.5335 717.367 23.9743C716.969 24.4151 716.488 24.7488 715.925 24.9753C715.362 25.1958 714.774 25.306 714.162 25.306C713.274 25.306 712.494 25.1131 711.82 24.7274C711.147 24.3417 710.62 23.7876 710.241 23.0651C709.861 22.3427 709.671 21.4764 709.671 20.4662C709.671 19.4682 709.843 18.5927 710.185 17.8396C710.528 17.0866 711.024 16.4988 711.673 16.0764C712.328 15.6539 713.115 15.4427 714.033 15.4427C714.927 15.4427 715.684 15.6355 716.302 16.0213C716.92 16.407 717.388 16.9519 717.707 17.656C718.031 18.3539 718.194 19.1835 718.194 20.1447V20.7692H711.389ZM711.398 19.6213H716.559C716.559 19.0764 716.467 18.5866 716.283 18.1519C716.1 17.7111 715.818 17.3651 715.439 17.1141C715.065 16.857 714.594 16.7284 714.024 16.7284C713.43 16.7284 712.938 16.8723 712.546 17.16C712.16 17.4417 711.869 17.8059 711.673 18.2529C711.483 18.6937 711.391 19.1498 711.398 19.6213ZM720.526 25.1223V15.6264H722.142V17.4539C722.301 17.0009 722.525 16.6274 722.813 16.3335C723.1 16.0335 723.428 15.81 723.795 15.6631C724.169 15.5162 724.555 15.4427 724.952 15.4427C725.093 15.4427 725.231 15.4519 725.366 15.4702C725.501 15.4886 725.605 15.5192 725.678 15.5621V17.206C725.586 17.1631 725.467 17.1355 725.32 17.1233C725.179 17.1049 725.06 17.0958 724.962 17.0958C724.582 17.0712 724.227 17.0957 723.896 17.1692C723.566 17.2366 723.275 17.3559 723.024 17.5274C722.773 17.6988 722.574 17.9253 722.427 18.207C722.286 18.4825 722.216 18.8192 722.216 19.2172V25.1223H720.526ZM728.005 11.8427H729.741V23.5978H736.013V25.1223H727.996L728.005 11.8427ZM739.226 20.7692C739.226 21.3692 739.325 21.9141 739.52 22.4039C739.722 22.8876 740.025 23.2733 740.43 23.5611C740.84 23.8488 741.351 23.9927 741.963 23.9927C742.569 23.9927 743.09 23.8519 743.524 23.5702C743.965 23.2886 744.247 22.8815 744.369 22.3488H745.976C745.86 22.9917 745.603 23.5335 745.205 23.9743C744.807 24.4151 744.327 24.7488 743.763 24.9753C743.2 25.1958 742.612 25.306 742 25.306C741.112 25.306 740.332 25.1131 739.658 24.7274C738.985 24.3417 738.458 23.7876 738.079 23.0651C737.699 22.3427 737.509 21.4764 737.509 20.4662C737.509 19.4682 737.681 18.5927 738.023 17.8396C738.367 17.0866 738.862 16.4988 739.511 16.0764C740.167 15.6539 740.953 15.4427 741.871 15.4427C742.765 15.4427 743.521 15.6355 744.14 16.0213C744.758 16.407 745.227 16.9519 745.545 17.656C745.87 18.3539 746.032 19.1835 746.032 20.1447V20.7692H739.226ZM739.236 19.6213H744.397C744.397 19.0764 744.305 18.5866 744.121 18.1519C743.938 17.7111 743.656 17.3651 743.276 17.1141C742.903 16.857 742.432 16.7284 741.862 16.7284C741.269 16.7284 740.776 16.8723 740.384 17.16C739.998 17.4417 739.707 17.8059 739.511 18.2529C739.322 18.6937 739.23 19.1498 739.236 19.6213ZM750.883 25.306C750.271 25.306 749.729 25.1988 749.257 24.9845C748.786 24.7641 748.416 24.4488 748.146 24.0386C747.883 23.6284 747.751 23.1325 747.751 22.5509C747.751 21.4978 748.118 20.7141 748.853 20.1998C749.588 19.6855 750.767 19.41 752.389 19.3733L754.088 19.3274V18.5835C754.088 18.0019 753.913 17.5427 753.564 17.206C753.215 16.8631 752.674 16.6917 751.939 16.6917C751.394 16.6978 750.914 16.8264 750.497 17.0774C750.087 17.3284 749.821 17.7386 749.698 18.308H748.201C748.238 17.6896 748.412 17.1692 748.725 16.7468C749.037 16.3182 749.472 15.9937 750.029 15.7733C750.592 15.5529 751.256 15.4427 752.022 15.4427C752.848 15.4427 753.534 15.559 754.079 15.7917C754.63 16.0243 755.04 16.3672 755.309 16.8202C755.585 17.2733 755.723 17.8304 755.723 18.4917V25.1223H754.272L754.152 23.3406C753.785 24.0815 753.316 24.5958 752.747 24.8835C752.184 25.1651 751.562 25.306 750.883 25.306ZM751.397 24.0845C751.716 24.0845 752.031 24.0264 752.343 23.91C752.661 23.7937 752.952 23.6376 753.215 23.4417C753.479 23.2396 753.687 23.0162 753.84 22.7713C753.999 22.5203 754.082 22.2631 754.088 21.9998V20.3743L752.674 20.4019C751.951 20.4141 751.345 20.4876 750.855 20.6223C750.372 20.757 750.007 20.9682 749.762 21.256C749.524 21.5437 749.404 21.9202 749.404 22.3855C749.404 22.9182 749.588 23.3345 749.955 23.6345C750.329 23.9345 750.809 24.0845 751.397 24.0845ZM762.049 25.306C760.819 25.306 759.842 24.8835 759.12 24.0386C758.397 23.1937 758.036 21.96 758.036 20.3376C758.036 19.3519 758.18 18.4917 758.468 17.757C758.762 17.0223 759.196 16.4529 759.772 16.0488C760.347 15.6447 761.063 15.4427 761.921 15.4427C762.374 15.4427 762.775 15.5008 763.124 15.6172C763.479 15.7335 763.785 15.8805 764.042 16.058C764.299 16.2355 764.507 16.4192 764.667 16.609C764.832 16.7988 764.954 16.9733 765.034 17.1325V11.4753H766.742V25.1223H765.447L765.264 23.1753C765.202 23.359 765.104 23.5733 764.97 23.8182C764.835 24.057 764.645 24.2927 764.4 24.5253C764.155 24.7519 763.84 24.9386 763.454 25.0855C763.075 25.2325 762.606 25.306 762.049 25.306ZM762.352 24.0019C763.313 24.0019 763.999 23.711 764.41 23.1294C764.826 22.5417 765.034 21.5835 765.034 20.2549C765.028 19.5141 764.933 18.8835 764.749 18.3631C764.572 17.8427 764.29 17.4478 763.904 17.1784C763.525 16.9029 763.02 16.7651 762.389 16.7651C761.605 16.7651 760.969 17.0437 760.479 17.6009C759.989 18.158 759.744 19.0427 759.744 20.2549C759.744 21.4427 759.965 22.3641 760.405 23.0192C760.852 23.6743 761.501 24.0019 762.352 24.0019Z" fill="#A0AEC0"/>
<path fill-rule="evenodd" clip-rule="evenodd" d="M626.332 18.3266C626.332 32.5097 626.339 36.1433 626.364 36.1433C626.413 36.1433 627.665 35.691 631.648 34.2347C635.24 32.9209 635.507 32.8181 649.482 27.377C657.285 24.3388 664.205 21.6589 664.86 21.4216C665.514 21.1844 666.098 20.9624 666.156 20.9283C666.353 20.814 666.34 21.0283 666.36 17.6531C666.379 14.4533 666.354 12.626 666.281 11.8504C666.179 10.7689 665.925 9.7065 665.528 8.69369C665.048 7.4716 664.356 6.32456 663.409 5.18479C663.06 4.76481 662.061 3.76149 661.665 3.43316C659.822 1.9052 657.801 0.994235 655.496 0.653317C654.578 0.51752 655.672 0.527308 640.423 0.518322L626.332 0.51001V18.3266ZM654.539 2.77134C656.328 3.00461 657.828 3.55173 659.216 4.47695C659.841 4.89367 660.242 5.22054 660.794 5.76465C662.523 7.468 663.58 9.60254 663.889 12.0158C663.937 12.3907 663.941 12.5696 663.941 14.1697V15.9146L663.857 15.9414C663.564 16.0347 657.035 18.0415 656.978 18.0556L656.907 18.0732L656.899 14.2316L656.89 10.3899L656.822 10.0273C656.623 8.97776 656.256 8.14814 655.685 7.46187C655.216 6.89766 654.648 6.52326 653.987 6.34234L653.737 6.27387L651.778 6.26545L649.819 6.25708V13.2874V20.3178L649.605 20.3825C649.488 20.4181 647.913 20.891 646.107 21.4334C644.3 21.9757 642.801 22.4259 642.776 22.4337C642.733 22.4472 642.731 22.1458 642.731 16.3541C642.731 10.9526 642.726 10.2339 642.691 10.0273C642.456 8.67003 641.812 7.52057 640.909 6.84847C640.641 6.64878 640.197 6.43289 639.873 6.34443L639.614 6.27387L637.655 6.26545L635.696 6.25708V16.1403C635.696 24.0362 635.702 26.0211 635.728 26.0112C635.746 26.0045 637.145 25.491 638.838 24.8702C640.531 24.2494 642.12 23.6662 642.369 23.5743L642.822 23.4071L642.828 25.3909C642.832 26.4819 642.826 27.3827 642.815 27.3925C642.797 27.4091 628.755 32.5622 628.654 32.5894C628.61 32.601 628.608 31.8773 628.608 17.6563V2.711L641.406 2.71923C653.251 2.72688 654.228 2.73076 654.539 2.77134Z" fill="#A0AEC0"/>
<path d="M896.945 7.34853C898.201 6.08956 898.201 4.04843 896.945 2.78949C895.688 1.53054 893.652 1.53054 892.395 2.78949C891.139 4.04843 891.139 6.08956 892.395 7.34853C893.652 8.60746 895.688 8.60746 896.945 7.34853Z" fill="#A0AEC0"/>
<path d="M907.096 8.29328C908.873 8.29328 910.313 6.84994 910.313 5.06952C910.313 3.28909 908.873 1.84576 907.096 1.84576C905.319 1.84576 903.879 3.28909 903.879 5.06952C903.879 6.84994 905.319 8.29328 907.096 8.29328Z" fill="#A0AEC0"/>
<path d="M919.219 8.29328C920.996 8.29328 922.436 6.84994 922.436 5.06952C922.436 3.28909 920.996 1.84576 919.219 1.84576C917.442 1.84576 916.002 3.28909 916.002 5.06952C916.002 6.84994 917.442 8.29328 919.219 8.29328Z" fill="#A0AEC0"/>
<path d="M907.096 26.9858C908.872 26.9858 910.313 25.5429 910.313 23.7621V15.2056C910.313 13.4255 908.873 11.9818 907.096 11.9818C905.32 11.9818 903.879 13.4247 903.879 15.2056V23.7621C903.879 25.5421 905.32 26.9858 907.096 26.9858Z" fill="#A0AEC0"/>
<path d="M922.513 20.3625L922.511 20.2322C922.513 20.0848 922.513 19.9366 922.511 19.7884C922.51 19.7379 922.507 19.6882 922.505 19.6377L922.445 14.1478C922.443 12.3442 920.982 10.8842 919.183 10.8858C917.383 10.8874 915.926 12.3515 915.928 14.1543L915.95 20.3568C915.79 25.4314 911.886 29.537 907.047 29.6062C902.058 29.6779 897.935 25.4314 897.856 20.1402C897.855 20.0783 897.852 20.0172 897.848 19.9569V19.9545L897.708 14.1096C897.706 12.3474 896.28 10.9208 894.521 10.9224C892.762 10.9241 891.337 12.3548 891.339 14.1177L891.303 20.0408C891.3 20.1051 891.299 20.1695 891.3 20.2338C891.3 20.2558 891.301 20.2778 891.301 20.2998L891.299 20.6238C891.299 20.7159 891.309 20.8054 891.322 20.8934C891.508 24.3386 892.738 27.4932 894.686 30.0305C897.599 33.8226 902.117 36.2321 907.144 36.1604C915.563 36.0399 922.342 29.0061 922.508 20.3616H922.513V20.3625Z" fill="#A0AEC0"/>
<path d="M961.971 9.88802L954.934 29.4773H951.806L949.376 23.3205L947.31 17.136L945.272 23.3758L942.898 29.4765H939.77L932.594 9.88721H936.727L941.335 24.0191L946.082 9.88721H948.484L953.37 24.0191L957.838 9.88721H961.971V9.88802Z" fill="#A0AEC0"/>
<path d="M975.319 23.7969H964.567C964.68 24.6738 965.098 25.3831 965.824 25.9238C966.55 26.4653 967.499 26.7356 968.673 26.7356C969.342 26.7356 970.031 26.6192 970.739 26.3855C971.447 26.1518 971.986 25.8399 972.358 25.4482L974.537 27.6028C973.848 28.33 972.964 28.8853 971.884 29.268C970.804 29.6499 969.715 29.8421 968.617 29.8421C966.271 29.8421 964.423 29.1752 963.073 27.8414C961.723 26.5076 961.049 24.7211 961.049 22.4826C961.049 20.3557 961.714 18.6213 963.046 17.2777C964.377 15.9341 966.15 15.2623 968.365 15.2623C970.729 15.2623 972.544 15.9944 973.81 17.4593C975.076 18.9225 975.58 21.0356 975.319 23.7969ZM964.624 20.9705H972.051C971.94 20.0935 971.567 19.4266 970.934 18.9698C970.301 18.513 969.482 18.2841 968.477 18.2841C967.528 18.2841 966.708 18.513 966.019 18.9698C965.331 19.4266 964.865 20.0935 964.624 20.9705Z" fill="#A0AEC0"/>
<path d="M977.943 9.91638H981.351V17.556C981.723 16.8842 982.37 16.3484 983.292 15.947C984.213 15.5455 985.074 15.3452 985.875 15.3452C987.96 15.3452 989.649 15.9706 990.943 17.2197C992.237 18.4696 992.884 20.2513 992.884 22.5647C992.884 24.7852 992.218 26.5433 990.887 27.8396C989.557 29.136 987.858 29.785 985.791 29.785C983.781 29.785 982.301 29.048 981.351 27.5742L981.128 29.4772H977.944V9.91638H977.943ZM985.568 18.5356C984.469 18.5356 983.529 18.9134 982.747 19.6691C981.966 20.4247 981.575 21.3897 981.575 22.5655C981.575 23.7788 981.961 24.7576 982.734 25.5043C983.505 26.251 984.45 26.6239 985.568 26.6239C986.666 26.6239 987.592 26.2461 988.346 25.4904C989.1 24.7348 989.477 23.7601 989.477 22.5663C989.477 21.3538 989.104 20.3791 988.36 19.6422C987.614 18.9037 986.684 18.5356 985.568 18.5356Z" fill="#A0AEC0"/>
<path d="M995.718 13.2745C995.299 12.9203 995.09 12.426 995.09 11.7917C995.09 11.1574 995.3 10.6631 995.718 10.3089C996.137 9.95467 996.598 9.77716 997.1 9.77716C997.603 9.77716 998.064 9.95467 998.482 10.3089C998.901 10.6639 999.111 11.1582 999.111 11.7917C999.111 12.426 998.901 12.9211 998.482 13.2745C998.063 13.6295 997.603 13.8062 997.1 13.8062C996.598 13.8062 996.136 13.6287 995.718 13.2745ZM998.803 15.6254H995.396V29.478H998.803V15.6254Z" fill="#A0AEC0"/>
<path d="M1017.12 13.106L1014.19 14.6173C1013.84 14.0205 1013.23 13.5075 1012.37 13.0783C1011.52 12.6492 1010.58 12.435 1009.55 12.435C1008.23 12.435 1007.23 12.6777 1006.54 13.1622C1005.85 13.6475 1005.51 14.2729 1005.51 15.0375C1005.51 15.579 1005.72 16.022 1006.15 16.3664C1006.58 16.7117 1007.08 16.9584 1007.65 17.1074C1008.23 17.2572 1008.97 17.3875 1009.86 17.4991C1010.77 17.6115 1011.57 17.7417 1012.26 17.8908C1012.95 18.0406 1013.66 18.2686 1014.39 18.5764C1015.11 18.8842 1015.7 19.2482 1016.16 19.6675C1016.61 20.0877 1016.99 20.6471 1017.29 21.3466C1017.59 22.0461 1017.74 22.8441 1017.74 23.739C1017.74 25.1387 1017.35 26.3186 1016.56 27.2795C1015.78 28.2403 1014.79 28.9308 1013.59 29.3502C1012.39 29.7704 1011.03 29.9796 1009.53 29.9796C1005.15 29.9796 1002.31 28.3755 1001.01 25.1664L1004.08 23.5712C1004.49 24.5972 1005.19 25.3716 1006.19 25.8936C1007.19 26.4163 1008.32 26.6769 1009.58 26.6769C1010.87 26.6769 1011.94 26.4342 1012.79 25.9489C1013.65 25.4644 1014.08 24.7275 1014.08 23.7381C1014.08 22.134 1012.57 21.1731 1009.55 20.8564C1008.42 20.7261 1007.45 20.5535 1006.64 20.3385C1005.83 20.1243 1005.03 19.8027 1004.25 19.3728C1003.47 18.9436 1002.88 18.3557 1002.47 17.6098C1002.07 16.8639 1001.87 15.9682 1001.87 14.9235C1001.87 13.6548 1002.27 12.5727 1003.05 11.6769C1003.83 10.7812 1004.77 10.1518 1005.87 9.7878C1006.97 9.42381 1008.16 9.23327 1009.44 9.21454C1013.3 9.21698 1015.86 10.5133 1017.12 13.106Z" fill="#A0AEC0"/>
<path d="M1020.61 9.88812H1024.02V17.5554C1025.08 16.1752 1026.52 15.4847 1028.32 15.4847C1030.22 15.4847 1031.63 16.0775 1032.57 17.2615C1033.5 18.4463 1033.96 20.0928 1033.96 22.2009V29.4766H1030.56V22.2286C1030.56 21.0162 1030.27 20.1156 1029.7 19.5285C1029.14 18.9405 1028.38 18.6466 1027.43 18.6466C1026.44 18.6466 1025.63 19.0106 1024.98 19.7377C1024.34 20.4649 1024.02 21.3606 1024.02 22.4241V29.4758H1020.61V9.88812Z" fill="#A0AEC0"/>
<path d="M1047.64 17.5836L1047.76 15.6806H1051.02V29.4771H1047.81L1047.64 27.4617C1047.27 28.2084 1046.65 28.7963 1045.77 29.2247C1044.9 29.6538 1044.03 29.8777 1043.18 29.8964C1041.07 29.9152 1039.37 29.2857 1038.05 28.0073C1036.74 26.7297 1036.08 24.9146 1036.08 22.5638C1036.08 20.2691 1036.76 18.4875 1038.11 17.2188C1039.46 15.9502 1041.18 15.3256 1043.26 15.3443C1044.19 15.3443 1045.06 15.5495 1045.86 15.9599C1046.66 16.3712 1047.25 16.9118 1047.64 17.5836ZM1043.57 18.3955C1042.39 18.3955 1041.42 18.7684 1040.65 19.5151C1039.88 20.2618 1039.49 21.278 1039.49 22.5654C1039.49 23.8528 1039.88 24.8739 1040.65 25.6296C1041.42 26.3852 1042.39 26.7631 1043.57 26.7631C1044.59 26.7631 1045.45 26.474 1046.15 25.8959C1046.85 25.3177 1047.28 24.6223 1047.43 23.8113C1047.59 22.9994 1047.59 22.1843 1047.43 21.3627C1047.28 20.5419 1046.85 19.8425 1046.15 19.2635C1045.45 18.6845 1044.59 18.3955 1043.57 18.3955Z" fill="#A0AEC0"/>
<path d="M1053.9 15.6806H1057.06L1057.31 17.2758C1057.79 16.4925 1058.35 15.9697 1058.98 15.7083C1059.61 15.4477 1060.35 15.3167 1061.19 15.3167C1062.68 15.3167 1063.86 15.7555 1064.74 16.6317L1063.2 19.5982C1062.49 19.0013 1061.67 18.7025 1060.74 18.7025C1059.75 18.7025 1058.94 18.9875 1058.29 19.5558C1057.63 20.125 1057.31 21.0069 1057.31 22.2006V29.4763H1053.9V15.6806Z" fill="#A0AEC0"/>
<path d="M1069.43 35.2416H1066.02V15.6808H1069.2L1069.43 17.5838C1069.93 16.8559 1070.59 16.3062 1071.41 15.9325C1072.23 15.5595 1073.06 15.373 1073.89 15.373C1075.98 15.373 1077.68 16.0587 1078.99 17.4299C1080.3 18.8012 1080.96 20.5218 1080.96 22.5933C1080.96 24.6828 1080.34 26.4091 1079.09 27.7705C1077.84 29.1328 1076.15 29.8136 1074.01 29.8136C1073.13 29.8136 1072.26 29.6597 1071.4 29.3519C1070.53 29.0441 1069.87 28.5457 1069.43 27.8552V35.2416H1069.43ZM1070.84 25.3774C1071.57 26.133 1072.51 26.5108 1073.64 26.5108C1074.78 26.5108 1075.71 26.133 1076.45 25.3774C1077.19 24.6217 1077.55 23.6942 1077.55 22.5933C1077.55 21.4737 1077.2 20.5413 1076.49 19.7946C1075.78 19.0487 1074.83 18.675 1073.64 18.675C1072.45 18.675 1071.5 19.0487 1070.79 19.7946C1070.09 20.5405 1069.73 21.4737 1069.73 22.5933C1069.73 23.6942 1070.1 24.6217 1070.84 25.3774Z" fill="#A0AEC0"/>
<path d="M10.8403 112.368C9.72417 112.106 8.66291 111.649 7.70508 111.019L9.27292 107.502C10.0869 108.027 10.9722 108.433 11.9017 108.706C12.8541 109.005 13.8459 109.159 14.844 109.164C16.6772 109.164 17.5937 108.707 17.5936 107.791C17.5918 107.553 17.5153 107.321 17.3748 107.129C17.2343 106.937 17.0369 106.793 16.8104 106.719C15.9944 106.398 15.1508 106.152 14.2902 105.984C13.21 105.764 12.1463 105.47 11.1066 105.105C10.2597 104.795 9.5048 104.277 8.91181 103.599C8.26788 102.814 7.94092 101.817 7.99515 100.804C7.98417 99.8123 8.27895 98.8408 8.83949 98.0218C9.47286 97.1386 10.348 96.4568 11.3598 96.0582C12.6672 95.5414 14.0662 95.2956 15.4717 95.3356C16.5758 95.3351 17.6763 95.4603 18.7519 95.709C19.7508 95.9279 20.7105 96.2976 21.5979 96.8053L20.1265 100.347C18.7003 99.5292 17.0915 99.082 15.4475 99.0462C14.7305 98.9943 14.013 99.1401 13.3733 99.4677C13.1773 99.5765 13.0138 99.7352 12.8994 99.9277C12.785 100.12 12.7238 100.34 12.7222 100.564C12.7281 100.792 12.8058 101.013 12.9443 101.194C13.0829 101.376 13.2751 101.509 13.4939 101.576C14.2986 101.885 15.1302 102.119 15.978 102.274C17.0629 102.491 18.1309 102.785 19.174 103.154C20.0164 103.465 20.7698 103.978 21.3688 104.647C22.0204 105.423 22.3523 106.418 22.2971 107.43C22.3066 108.41 22.0118 109.37 21.4532 110.176C20.812 111.056 19.9338 111.737 18.9208 112.139C17.6186 112.662 16.2228 112.912 14.82 112.874C13.4772 112.877 12.1396 112.707 10.8403 112.368Z" fill="#A0AEC0"/>
<path d="M30.003 111.742C28.6081 111.012 27.4399 109.914 26.6248 108.568C25.8098 107.222 25.3789 105.678 25.3789 104.105C25.3789 102.532 25.8098 100.989 26.6248 99.6426C27.4399 98.2964 28.6081 97.1986 30.003 96.4682C31.4974 95.7234 33.1445 95.3357 34.8146 95.3357C36.4847 95.3357 38.1319 95.7234 39.6262 96.4682C41.0211 97.1987 42.1893 98.2965 43.0043 99.6426C43.8193 100.989 44.2502 102.532 44.2502 104.105C44.2502 105.678 43.8193 107.222 43.0043 108.568C42.1893 109.914 41.0211 111.012 39.6262 111.742C38.1318 112.487 36.4847 112.874 34.8146 112.874C33.1446 112.874 31.4974 112.487 30.003 111.742ZM37.1302 108.32C37.8237 107.917 38.3915 107.329 38.7703 106.622C39.1666 105.842 39.3732 104.979 39.3732 104.104C39.3732 103.23 39.1666 102.367 38.7703 101.587C38.3913 100.88 37.8235 100.292 37.1302 99.8883C36.4225 99.4934 35.6254 99.2861 34.8148 99.2861C34.0042 99.2861 33.207 99.4934 32.4994 99.8883C31.8058 100.292 31.238 100.88 30.8591 101.587C30.4627 102.367 30.2562 103.23 30.2562 104.104C30.2562 104.979 30.4627 105.842 30.8591 106.622C31.2377 107.329 31.8055 107.917 32.4992 108.32C33.2069 108.715 34.004 108.923 34.8146 108.923C35.6253 108.923 36.4225 108.715 37.1302 108.32Z" fill="#A0AEC0"/>
<path d="M52.1678 111.753C50.7952 111.039 49.6473 109.959 48.8516 108.633C48.0375 107.264 47.6202 105.696 47.6456 104.104C47.6202 102.512 48.0375 100.944 48.8516 99.5746C49.6473 98.2487 50.7952 97.1688 52.1678 96.4547C53.6378 95.6925 55.2748 95.3075 56.9313 95.3343C58.3639 95.3125 59.7854 95.5916 61.1031 96.1536C62.3101 96.6761 63.3702 97.4869 64.1899 98.5146L61.1516 101.261C60.6859 100.647 60.0841 100.15 59.3936 99.8073C58.7031 99.4645 57.943 99.2859 57.1722 99.2854C56.3175 99.27 55.4738 99.4775 54.7238 99.8876C54.0167 100.281 53.4384 100.871 53.0599 101.586C52.6713 102.369 52.4692 103.23 52.4692 104.104C52.4692 104.977 52.6713 105.839 53.0599 106.621C53.4384 107.336 54.0167 107.926 54.7242 108.319C55.4738 108.73 56.3179 108.937 57.1722 108.922C57.943 108.921 58.7036 108.743 59.3936 108.4C60.0841 108.057 60.6859 107.56 61.1516 106.947L64.1908 109.693C63.3711 110.721 62.311 111.532 61.1036 112.054C59.7859 112.616 58.3644 112.895 56.9318 112.874C55.2753 112.9 53.6382 112.515 52.1678 111.753Z" fill="#A0AEC0"/>
<path d="M68.1211 95.6719H72.8966V112.536H68.1211V95.6719Z" fill="#A0AEC0"/>
<path d="M89.4171 109.26H82.2781L80.9521 112.536H76.0801L83.5325 95.6719H88.2356L95.7125 112.536H90.744L89.4171 109.26ZM88.0187 105.742L85.8481 100.346L83.677 105.742H88.0187Z" fill="#A0AEC0"/>
<path d="M98.8711 95.6719H103.646V108.753H111.702V112.537H98.8711V95.6719Z" fill="#A0AEC0"/>
<path d="M120.105 108.918H118.238V112.874H120.105V108.918Z" fill="#A0AEC0"/>
<path d="M132.996 108.918H131.154V112.874H132.996V108.918Z" fill="#A0AEC0"/>
<path d="M131.154 100.708V103.096H120.105V100.708H118.238V107.935H120.105V104.735H131.154V107.935H132.997V100.708H131.154Z" fill="#A0AEC0"/>
<path d="M120.818 95.2342H118.951V99.7252H120.818V95.2342Z" fill="#A0AEC0"/>
<path d="M133.709 95.2342H131.867V99.7252H133.709V95.2342Z" fill="#A0AEC0"/>
<path d="M165.015 97.7035C166.18 97.0593 167.493 96.7291 168.825 96.7455C169.792 96.7164 170.755 96.8873 171.654 97.2473C172.552 97.6072 173.367 98.1487 174.046 98.8376L175.232 97.6527C174.449 96.8069 173.483 96.1518 172.407 95.738C171.248 95.2922 170.016 95.0698 168.774 95.0826C167.12 95.0594 165.488 95.4584 164.031 96.2418C162.649 96.9851 161.5 98.0974 160.714 99.4547C160.663 99.542 160.629 99.6359 160.58 99.7249H162.734C163.337 98.8924 164.115 98.2023 165.015 97.7035Z" fill="#A0AEC0"/>
<path d="M160.645 104.054C160.636 102.893 160.903 101.746 161.426 100.708H159.412C159.003 101.776 158.797 102.911 158.803 104.054C158.794 105.394 159.082 106.719 159.646 107.935H161.719C161.687 107.883 161.648 107.837 161.616 107.784C160.962 106.651 160.626 105.362 160.645 104.054Z" fill="#A0AEC0"/>
<path d="M163.306 111.866C164.757 112.65 166.386 113.049 168.036 113.025C169.283 113.037 170.52 112.81 171.681 112.356C172.762 111.937 173.732 111.278 174.52 110.429L173.334 109.244C172.66 109.942 171.847 110.491 170.947 110.856C170.048 111.22 169.082 111.392 168.112 111.361C166.78 111.377 165.468 111.047 164.302 110.403C163.608 110.015 162.985 109.512 162.458 108.917H160.18C160.951 110.152 162.028 111.167 163.306 111.866Z" fill="#A0AEC0"/>
<path d="M182.263 108.918H180.396V112.874H182.263V108.918Z" fill="#A0AEC0"/>
<path d="M195.49 95.2344H193.346L188.979 99.7247H191.193L195.49 95.2344Z" fill="#A0AEC0"/>
<path d="M189.54 100.708H187.309L182.265 105.894V100.708H180.398V107.935H182.563L185.872 104.584L188.789 107.935H191.125L187.133 103.223L189.54 100.708Z" fill="#A0AEC0"/>
<path d="M182.976 95.2342H181.109V99.7252H182.976V95.2342Z" fill="#A0AEC0"/>
<path d="M193.086 112.873H195.306L191.957 108.917H189.645L193.086 112.873Z" fill="#A0AEC0"/>
<path d="M212.284 112.873H214.327L211.506 108.917H209.467L212.284 112.873Z" fill="#A0AEC0"/>
<path d="M202.806 96.8468H207.499C208.929 96.7505 210.347 97.1561 211.51 97.9935C212.057 98.4452 212.461 99.0471 212.67 99.725H214.59C214.346 98.5984 213.733 97.5855 212.847 96.8468C211.33 95.6945 209.451 95.1224 207.549 95.2341H200.939V99.725H202.806V96.8468Z" fill="#A0AEC0"/>
<path d="M213.003 104.773C213.723 103.754 214.09 102.529 214.05 101.283C214.05 101.086 214.039 100.897 214.025 100.709H212.154C212.172 100.894 212.183 101.085 212.183 101.283C212.216 101.895 212.108 102.506 211.867 103.07C211.626 103.633 211.259 104.134 210.795 104.534C209.636 105.379 208.216 105.79 206.784 105.693H202.092V100.708H200.225V107.935H202.092V107.28H206.834C207.306 107.281 207.778 107.256 208.247 107.204L208.767 107.935H210.804L210.012 106.826C211.203 106.479 212.252 105.759 213.003 104.773Z" fill="#A0AEC0"/>
<path d="M202.093 108.918H200.227V112.874H202.093V108.918Z" fill="#A0AEC0"/>
<path d="M222.824 97.5651C223.861 96.898 225.087 96.5844 226.317 96.671C227.155 96.6755 227.987 96.7984 228.79 97.0363C229.631 97.2798 230.431 97.649 231.161 98.1315L231.792 96.6455C231.023 96.1292 230.175 95.7418 229.281 95.4988C228.318 95.2218 227.32 95.0817 226.317 95.0828C225.074 95.0445 223.836 95.2678 222.685 95.7381C221.805 96.0962 221.05 96.7053 220.515 97.4893C220.085 98.1578 219.846 98.9305 219.822 99.7247H221.667C221.681 99.3002 221.793 98.8847 221.993 98.5102C222.194 98.1358 222.478 97.8124 222.824 97.5651Z" fill="#A0AEC0"/>
<path d="M219.941 102.517C220.493 103.148 221.19 103.636 221.971 103.941C223.01 104.328 224.072 104.652 225.15 104.911C226.029 105.113 226.896 105.361 227.748 105.655C228.338 105.861 228.875 106.192 229.325 106.625C229.675 106.977 229.892 107.441 229.937 107.935H231.791C231.791 107.104 231.503 106.299 230.977 105.655C230.425 105.026 229.728 104.542 228.946 104.243C227.92 103.863 226.871 103.548 225.805 103.298C224.712 103.03 223.842 102.782 223.195 102.555C222.589 102.354 222.037 102.018 221.58 101.572C221.341 101.33 221.165 101.034 221.066 100.708H219.15C219.229 101.376 219.504 102.005 219.941 102.517Z" fill="#A0AEC0"/>
<path d="M228.782 110.568C227.716 111.221 226.473 111.525 225.225 111.437C224.106 111.438 222.995 111.238 221.946 110.845C220.995 110.517 220.126 109.989 219.398 109.295L218.666 110.731C219.45 111.498 220.406 112.068 221.454 112.394C222.666 112.816 223.941 113.029 225.225 113.025C226.476 113.06 227.72 112.842 228.884 112.382C229.775 112.033 230.543 111.428 231.091 110.643C231.434 110.122 231.66 109.534 231.753 108.917H229.9C229.75 109.589 229.351 110.179 228.782 110.568Z" fill="#A0AEC0"/>
<path d="M132.996 99.7249H131.154V100.708H132.996V99.7249Z" fill="#A0AEC0"/>
<path d="M120.105 99.7249H118.238V100.708H120.105V99.7249Z" fill="#A0AEC0"/>
<path d="M160.713 100.708C160.778 100.58 160.831 100.449 160.904 100.324C161.028 100.118 161.163 99.9176 161.308 99.7249H159.155C158.983 100.043 158.83 100.371 158.699 100.708L160.713 100.708Z" fill="#A0AEC0"/>
<path d="M188.825 100.708L189.765 99.7249H187.551L186.594 100.708H188.825Z" fill="#A0AEC0"/>
<path d="M181.551 99.7249H179.684V100.708H181.551V99.7249Z" fill="#A0AEC0"/>
<path d="M211.44 100.708H213.311C213.286 100.377 213.236 100.048 213.162 99.7249H211.242C211.343 100.044 211.409 100.374 211.44 100.708Z" fill="#A0AEC0"/>
<path d="M201.379 99.7249H199.512V100.708H201.379V99.7249Z" fill="#A0AEC0"/>
<path d="M218.436 100.708H220.352C220.265 100.437 220.222 100.155 220.222 99.8705C220.222 99.8196 220.237 99.7746 220.239 99.7249H218.394C218.391 99.791 218.381 99.8543 218.381 99.9213C218.38 100.184 218.398 100.447 218.436 100.708Z" fill="#A0AEC0"/>
<path d="M120.818 107.935H118.951V108.918H120.818V107.935Z" fill="#A0AEC0"/>
<path d="M133.709 107.935H131.867V108.918H133.709V107.935Z" fill="#A0AEC0"/>
<path d="M160.357 107.935C160.47 108.177 160.578 108.421 160.714 108.653C160.768 108.747 160.835 108.828 160.892 108.918H163.17C162.895 108.613 162.648 108.284 162.43 107.935H160.357Z" fill="#A0AEC0"/>
<path d="M183.276 107.935H181.111V108.918H182.978V108.238L183.276 107.935Z" fill="#A0AEC0"/>
<path d="M189.502 107.935L190.358 108.918H192.67L191.837 107.935H189.502Z" fill="#A0AEC0"/>
<path d="M202.806 107.935H200.939V108.918H202.806V107.935Z" fill="#A0AEC0"/>
<path d="M209.482 107.935L210.181 108.918H212.22L211.518 107.935H209.482Z" fill="#A0AEC0"/>
<path d="M232.504 107.935H230.651C230.669 108.06 230.679 108.187 230.681 108.313C230.68 108.517 230.657 108.72 230.613 108.918H232.466C232.503 108.685 232.522 108.449 232.523 108.212C232.523 108.115 232.509 108.029 232.504 107.935Z" fill="#A0AEC0"/>
<path d="M118.845 108.918H116.979V112.874H118.845V108.918Z" fill="#A0AEC0"/>
<path d="M131.737 108.918H129.895V112.874H131.737V108.918Z" fill="#A0AEC0"/>
<path d="M129.895 100.708V103.096H118.845V100.708H116.979V107.935H118.845V104.735H129.895V107.935H131.737V100.708H129.895Z" fill="#A0AEC0"/>
<path d="M119.558 95.2342H117.691V99.7252H119.558V95.2342Z" fill="#A0AEC0"/>
<path d="M132.451 95.2342H130.609V99.7252H132.451V95.2342Z" fill="#A0AEC0"/>
<path d="M163.757 97.7035C164.922 97.0593 166.235 96.7291 167.566 96.7455C168.534 96.7164 169.497 96.8873 170.395 97.2473C171.294 97.6072 172.109 98.1487 172.788 98.8376L173.974 97.6527C173.191 96.8069 172.225 96.1518 171.148 95.738C169.99 95.2922 168.757 95.0698 167.516 95.0826C165.862 95.0594 164.229 95.4584 162.773 96.2418C161.39 96.9851 160.242 98.0974 159.456 99.4547C159.405 99.542 159.37 99.6359 159.322 99.7249H161.475C162.079 98.8924 162.857 98.2023 163.757 97.7035Z" fill="#A0AEC0"/>
<path d="M159.385 104.054C159.376 102.893 159.644 101.746 160.166 100.708H158.152C157.743 101.776 157.537 102.911 157.543 104.054C157.534 105.394 157.822 106.719 158.386 107.935H160.459C160.426 107.883 160.388 107.837 160.356 107.784C159.702 106.651 159.367 105.362 159.385 104.054Z" fill="#A0AEC0"/>
<path d="M162.048 111.866C163.5 112.65 165.129 113.049 166.779 113.025C168.025 113.037 169.263 112.81 170.424 112.356C171.504 111.937 172.474 111.278 173.262 110.429L172.076 109.244C171.402 109.942 170.589 110.491 169.69 110.856C168.79 111.22 167.824 111.392 166.854 111.361C165.523 111.377 164.21 111.047 163.045 110.403C162.351 110.015 161.728 109.512 161.2 108.917H158.922C159.694 110.152 160.77 111.167 162.048 111.866Z" fill="#A0AEC0"/>
<path d="M181.005 108.918H179.139V112.874H181.005V108.918Z" fill="#A0AEC0"/>
<path d="M194.23 95.2344H192.085L187.719 99.7247H189.933L194.23 95.2344Z" fill="#A0AEC0"/>
<path d="M188.28 100.708H186.049L181.005 105.894V100.708H179.139V107.935H181.303L184.612 104.584L187.529 107.935H189.865L185.874 103.223L188.28 100.708Z" fill="#A0AEC0"/>
<path d="M181.718 95.2342H179.852V99.7252H181.718V95.2342Z" fill="#A0AEC0"/>
<path d="M191.826 112.873H194.046L190.697 108.917H188.385L191.826 112.873Z" fill="#A0AEC0"/>
<path d="M211.025 112.873H213.069L210.248 108.917H208.209L211.025 112.873Z" fill="#A0AEC0"/>
<path d="M201.547 96.8468H206.239C207.669 96.7505 209.087 97.1561 210.25 97.9935C210.797 98.4451 211.201 99.0471 211.41 99.7251H213.33C213.086 98.5985 212.473 97.5855 211.587 96.8468C210.07 95.6945 208.191 95.1224 206.289 95.2341H199.68V99.7251H201.547V96.8468Z" fill="#A0AEC0"/>
<path d="M211.745 104.773C212.464 103.754 212.831 102.529 212.792 101.283C212.792 101.086 212.781 100.897 212.767 100.709H210.896C210.914 100.894 210.925 101.085 210.925 101.283C210.958 101.895 210.85 102.506 210.609 103.07C210.368 103.633 210.001 104.134 209.536 104.534C208.378 105.379 206.958 105.79 205.526 105.693H200.833V100.708H198.967V107.935H200.833V107.28H205.576C206.048 107.281 206.519 107.256 206.989 107.204L207.509 107.935H209.545L208.755 106.826C209.945 106.478 210.994 105.759 211.745 104.773Z" fill="#A0AEC0"/>
<path d="M200.834 108.918H198.967V112.874H200.834V108.918Z" fill="#A0AEC0"/>
<path d="M221.564 97.5651C222.601 96.898 223.827 96.5843 225.058 96.671C225.895 96.6755 226.728 96.7984 227.53 97.0363C228.371 97.2798 229.17 97.649 229.901 98.1315L230.532 96.6455C229.764 96.1292 228.916 95.7419 228.022 95.4988C227.058 95.2218 226.061 95.0817 225.058 95.0828C223.814 95.0445 222.576 95.2678 221.425 95.7381C220.545 96.0962 219.791 96.7053 219.256 97.4893C218.826 98.1578 218.586 98.9305 218.562 99.7246H220.407C220.421 99.3002 220.533 98.8847 220.734 98.5102C220.934 98.1358 221.218 97.8124 221.564 97.5651Z" fill="#A0AEC0"/>
<path d="M218.681 102.517C219.233 103.148 219.93 103.636 220.712 103.941C221.75 104.328 222.812 104.652 223.89 104.911C224.768 105.113 225.636 105.361 226.489 105.655C227.078 105.861 227.616 106.192 228.066 106.625C228.416 106.977 228.632 107.441 228.678 107.935H230.531C230.531 107.104 230.243 106.299 229.718 105.655C229.165 105.026 228.468 104.542 227.686 104.243C226.66 103.863 225.611 103.548 224.546 103.298C223.452 103.03 222.582 102.782 221.935 102.555C221.329 102.354 220.777 102.018 220.321 101.572C220.082 101.33 219.905 101.034 219.806 100.708H217.891C217.97 101.376 218.245 102.005 218.681 102.517Z" fill="#A0AEC0"/>
<path d="M227.525 110.568C226.459 111.221 225.215 111.525 223.968 111.437C222.848 111.438 221.737 111.238 220.688 110.845C219.737 110.517 218.868 109.989 218.14 109.295L217.408 110.731C218.193 111.498 219.148 112.068 220.196 112.394C221.408 112.816 222.684 113.029 223.968 113.025C225.218 113.06 226.463 112.842 227.626 112.382C228.517 112.033 229.285 111.428 229.833 110.643C230.176 110.123 230.402 109.534 230.495 108.917H228.642C228.492 109.589 228.093 110.179 227.525 110.568Z" fill="#A0AEC0"/>
<path d="M131.737 99.7249H129.895V100.708H131.737V99.7249Z" fill="#A0AEC0"/>
<path d="M118.845 99.7249H116.979V100.708H118.845V99.7249Z" fill="#A0AEC0"/>
<path d="M159.453 100.708C159.517 100.58 159.571 100.449 159.643 100.324C159.768 100.118 159.903 99.9176 160.048 99.7249H157.895C157.722 100.043 157.571 100.371 157.439 100.708L159.453 100.708Z" fill="#A0AEC0"/>
<path d="M187.567 100.708L188.509 99.7249H186.293L185.336 100.708H187.567Z" fill="#A0AEC0"/>
<path d="M180.293 99.7249H178.426V100.708H180.293V99.7249Z" fill="#A0AEC0"/>
<path d="M210.183 100.708H212.054C212.029 100.377 211.979 100.048 211.905 99.7249H209.984C210.086 100.044 210.152 100.374 210.183 100.708Z" fill="#A0AEC0"/>
<path d="M200.12 99.7249H198.254V100.708H200.12V99.7249Z" fill="#A0AEC0"/>
<path d="M217.178 100.708H219.094C219.008 100.437 218.964 100.155 218.965 99.8705C218.965 99.8196 218.978 99.7746 218.98 99.7249H217.136C217.134 99.791 217.123 99.8543 217.123 99.9213C217.122 100.184 217.141 100.447 217.178 100.708Z" fill="#A0AEC0"/>
<path d="M119.558 107.935H117.691V108.918H119.558V107.935Z" fill="#A0AEC0"/>
<path d="M132.451 107.935H130.609V108.918H132.451V107.935Z" fill="#A0AEC0"/>
<path d="M159.1 107.935C159.212 108.177 159.32 108.421 159.455 108.653C159.51 108.747 159.577 108.828 159.635 108.918H161.913C161.638 108.613 161.39 108.284 161.172 107.935H159.1Z" fill="#A0AEC0"/>
<path d="M182.016 107.935H179.852V108.918H181.718V108.238L182.016 107.935Z" fill="#A0AEC0"/>
<path d="M188.242 107.935L189.098 108.918H191.411L190.578 107.935H188.242Z" fill="#A0AEC0"/>
<path d="M201.546 107.935H199.68V108.918H201.546V107.935Z" fill="#A0AEC0"/>
<path d="M208.223 107.935L208.922 108.918H210.961L210.259 107.935H208.223Z" fill="#A0AEC0"/>
<path d="M231.246 107.935H229.393C229.411 108.06 229.421 108.187 229.423 108.313C229.422 108.517 229.399 108.72 229.355 108.918H231.209C231.245 108.685 231.264 108.449 231.265 108.212C231.265 108.115 231.251 108.029 231.246 107.935Z" fill="#A0AEC0"/>
<path d="M119.392 108.918H117.525V112.874H119.392V108.918Z" fill="#A0AEC0"/>
<path d="M132.283 108.918H130.441V112.874H132.283V108.918Z" fill="#A0AEC0"/>
<path d="M130.441 100.708V103.096H119.39V100.708H117.523V107.935H119.39V104.735H130.441V107.935H132.282V100.708H130.441Z" fill="#A0AEC0"/>
<path d="M120.105 95.2342H118.238V99.7252H120.105V95.2342Z" fill="#A0AEC0"/>
<path d="M132.996 95.2342H131.154V99.7252H132.996V95.2342Z" fill="#A0AEC0"/>
<path d="M164.302 97.7035C165.467 97.0593 166.78 96.7291 168.111 96.7455C169.079 96.7164 170.042 96.8873 170.941 97.2473C171.839 97.6072 172.654 98.1487 173.333 98.8376L174.519 97.6527C173.736 96.8069 172.77 96.1518 171.694 95.738C170.535 95.2922 169.302 95.0698 168.061 95.0826C166.407 95.0594 164.774 95.4584 163.318 96.2418C161.935 96.9851 160.787 98.0974 160.001 99.4547C159.95 99.542 159.915 99.6359 159.867 99.7249H162.02C162.623 98.8924 163.403 98.2023 164.302 97.7035Z" fill="#A0AEC0"/>
<path d="M159.932 104.054C159.922 102.893 160.191 101.746 160.713 100.708H158.699C158.29 101.776 158.084 102.911 158.09 104.054C158.081 105.394 158.369 106.719 158.933 107.935H161.006C160.973 107.883 160.935 107.837 160.903 107.784C160.249 106.651 159.913 105.362 159.932 104.054Z" fill="#A0AEC0"/>
<path d="M162.593 111.866C164.045 112.65 165.674 113.049 167.324 113.025C168.57 113.037 169.808 112.81 170.969 112.356C172.049 111.937 173.019 111.278 173.807 110.429L172.621 109.244C171.947 109.942 171.134 110.491 170.234 110.856C169.335 111.22 168.369 111.392 167.399 111.361C166.067 111.377 164.755 111.047 163.59 110.403C162.896 110.015 162.272 109.512 161.745 108.917H159.467C160.238 110.152 161.315 111.167 162.593 111.866Z" fill="#A0AEC0"/>
<path d="M181.551 108.918H179.684V112.874H181.551V108.918Z" fill="#A0AEC0"/>
<path d="M194.775 95.2344H192.631L188.264 99.7247H190.478L194.775 95.2344Z" fill="#A0AEC0"/>
<path d="M188.825 100.708H186.594L181.551 105.894V100.708H179.684V107.935H181.848L185.157 104.584L188.075 107.935H190.41L186.419 103.223L188.825 100.708Z" fill="#A0AEC0"/>
<path d="M182.263 95.2342H180.396V99.7252H182.263V95.2342Z" fill="#A0AEC0"/>
<path d="M192.373 112.873H194.593L191.242 108.917H188.93L192.373 112.873Z" fill="#A0AEC0"/>
<path d="M211.57 112.873H213.613L210.793 108.917H208.754L211.57 112.873Z" fill="#A0AEC0"/>
<path d="M202.093 96.8469H206.785C208.215 96.7505 209.634 97.1561 210.796 97.9935C211.344 98.4452 211.747 99.0471 211.957 99.725H213.877C213.633 98.5985 213.019 97.5855 212.134 96.8469C210.617 95.6946 208.738 95.1225 206.836 95.2341H200.227V99.725H202.093V96.8469Z" fill="#A0AEC0"/>
<path d="M212.29 104.773C213.009 103.754 213.377 102.529 213.337 101.283C213.337 101.086 213.326 100.897 213.312 100.709H211.441C211.459 100.894 211.47 101.085 211.47 101.283C211.503 101.895 211.395 102.506 211.154 103.07C210.914 103.633 210.547 104.134 210.081 104.534C208.923 105.379 207.503 105.79 206.071 105.693H201.379V100.708H199.512V107.935H201.379V107.28H206.121C206.593 107.281 207.065 107.256 207.534 107.204L208.054 107.935H210.09L209.299 106.826C210.49 106.479 211.538 105.759 212.29 104.773Z" fill="#A0AEC0"/>
<path d="M201.379 108.918H199.512V112.874H201.379V108.918Z" fill="#A0AEC0"/>
<path d="M222.109 97.5651C223.146 96.898 224.372 96.5844 225.603 96.671C226.44 96.6755 227.272 96.7984 228.076 97.0363C228.916 97.2798 229.716 97.649 230.446 98.1315L231.077 96.6455C230.309 96.1292 229.461 95.7418 228.567 95.4988C227.603 95.2218 226.606 95.0817 225.603 95.0828C224.359 95.0445 223.122 95.2678 221.97 95.7381C221.091 96.0962 220.336 96.7053 219.801 97.4893C219.371 98.1578 219.131 98.9305 219.107 99.7247H220.952C220.966 99.3002 221.078 98.8847 221.278 98.5102C221.479 98.1358 221.763 97.8124 222.109 97.5651Z" fill="#A0AEC0"/>
<path d="M219.227 102.517C219.779 103.148 220.476 103.636 221.258 103.941C222.296 104.328 223.358 104.652 224.436 104.911C225.315 105.113 226.182 105.361 227.035 105.655C227.624 105.861 228.162 106.192 228.612 106.625C228.961 106.977 229.178 107.441 229.224 107.935H231.078C231.078 107.104 230.79 106.299 230.264 105.655C229.712 105.026 229.015 104.542 228.233 104.243C227.207 103.863 226.158 103.548 225.092 103.298C223.999 103.03 223.129 102.782 222.482 102.555C221.876 102.354 221.324 102.018 220.867 101.572C220.628 101.33 220.452 101.034 220.353 100.708H218.438C218.516 101.376 218.791 102.005 219.227 102.517Z" fill="#A0AEC0"/>
<path d="M228.07 110.568C227.003 111.221 225.76 111.525 224.512 111.437C223.392 111.438 222.281 111.238 221.233 110.845C220.282 110.517 219.413 109.989 218.685 109.295L217.953 110.731C218.737 111.498 219.693 112.068 220.74 112.394C221.953 112.816 223.228 113.029 224.512 113.025C225.763 113.06 227.007 112.842 228.17 112.382C229.062 112.033 229.83 111.428 230.377 110.643C230.721 110.122 230.947 109.534 231.04 108.917H229.186C229.036 109.589 228.637 110.179 228.07 110.568Z" fill="#A0AEC0"/>
<path d="M132.283 99.7249H130.441V100.708H132.283V99.7249Z" fill="#A0AEC0"/>
<path d="M119.392 99.7249H117.525V100.708H119.392V99.7249Z" fill="#A0AEC0"/>
<path d="M160 100.708C160.064 100.58 160.118 100.449 160.19 100.324C160.315 100.118 160.45 99.9176 160.595 99.7249H158.442C158.27 100.043 158.117 100.371 157.986 100.708L160 100.708Z" fill="#A0AEC0"/>
<path d="M188.112 100.708L189.053 99.7249H186.838L185.881 100.708H188.112Z" fill="#A0AEC0"/>
<path d="M180.838 99.7249H178.971V100.708H180.838V99.7249Z" fill="#A0AEC0"/>
<path d="M210.728 100.708H212.598C212.574 100.377 212.524 100.048 212.449 99.7249H210.529C210.63 100.044 210.697 100.374 210.728 100.708Z" fill="#A0AEC0"/>
<path d="M200.665 99.7249H198.799V100.708H200.665V99.7249Z" fill="#A0AEC0"/>
<path d="M217.723 100.708H219.639C219.552 100.437 219.509 100.155 219.51 99.8705C219.51 99.8196 219.524 99.7746 219.525 99.7249H217.681C217.679 99.791 217.668 99.8543 217.668 99.9213C217.667 100.184 217.686 100.447 217.723 100.708Z" fill="#A0AEC0"/>
<path d="M120.105 107.935H118.238V108.918H120.105V107.935Z" fill="#A0AEC0"/>
<path d="M132.996 107.935H131.154V108.918H132.996V107.935Z" fill="#A0AEC0"/>
<path d="M159.646 107.935C159.759 108.177 159.867 108.421 160.002 108.653C160.057 108.747 160.124 108.828 160.181 108.918H162.46C162.184 108.613 161.937 108.284 161.719 107.935H159.646Z" fill="#A0AEC0"/>
<path d="M182.563 107.935H180.398V108.918H182.265V108.238L182.563 107.935Z" fill="#A0AEC0"/>
<path d="M188.787 107.935L189.643 108.918H191.956L191.122 107.935H188.787Z" fill="#A0AEC0"/>
<path d="M202.093 107.935H200.227V108.918H202.093V107.935Z" fill="#A0AEC0"/>
<path d="M208.768 107.935L209.467 108.918H211.506L210.804 107.935H208.768Z" fill="#A0AEC0"/>
<path d="M231.791 107.935H229.938C229.956 108.06 229.966 108.187 229.968 108.313C229.967 108.517 229.944 108.72 229.9 108.918H231.753C231.79 108.685 231.809 108.449 231.81 108.212C231.81 108.115 231.795 108.029 231.791 107.935Z" fill="#A0AEC0"/>
<path d="M146.544 113.241L149.353 111.985L149.076 111.278H145.779L146.544 113.241Z" fill="#A0AEC0"/>
<path d="M145.93 99.6222H140.764L140.492 104.714H151.119L145.93 99.6222Z" fill="#A0AEC0"/>
<path d="M141.587 94.8065L141.344 99.3565H146.226L141.587 94.8065Z" fill="#A0AEC0"/>
<path d="M144.849 108.89L145.676 111.012H148.972L147.715 107.775L154.631 108.161L151.833 105.416H140.459L140.158 111.012H142.776L144.849 108.89Z" fill="#A0AEC0"/>
<path d="M140.147 111.278L140.012 113.836L142.515 111.278H140.147Z" fill="#A0AEC0"/>
<path d="M144.525 99.3567H139.642L139.631 99.6227H144.797L144.525 99.3567Z" fill="#A0AEC0"/>
<path d="M142.209 111.012H139.592L139.58 111.278H141.948L142.209 111.012Z" fill="#A0AEC0"/>
<path d="M145.212 111.278H148.508L148.406 111.012H145.109L145.212 111.278Z" fill="#A0AEC0"/>
<path d="M152.252 104.714H141.626L141.592 105.415H152.965L152.252 104.714Z" fill="#A0AEC0"/>
<path d="M145.409 113.241L148.219 111.985L147.941 111.278H144.645L145.409 113.241Z" fill="#A0AEC0"/>
<path d="M144.797 99.6222H139.632L139.359 104.714H149.986L144.797 99.6222Z" fill="#A0AEC0"/>
<path d="M140.452 94.8065L140.209 99.3565H145.091L140.452 94.8065Z" fill="#A0AEC0"/>
<path d="M143.717 108.89L144.543 111.012H147.841L146.584 107.775L153.5 108.161L150.702 105.416H139.326L139.027 111.012H141.644L143.717 108.89Z" fill="#A0AEC0"/>
<path d="M139.016 111.278L138.879 113.836L141.384 111.278H139.016Z" fill="#A0AEC0"/>
<path d="M143.394 99.3567H138.512L138.5 99.6227H143.666L143.394 99.3567Z" fill="#A0AEC0"/>
<path d="M141.076 111.012H138.458L138.447 111.278H140.815L141.076 111.012Z" fill="#A0AEC0"/>
<path d="M144.078 111.278H147.374L147.273 111.012H143.977L144.078 111.278Z" fill="#A0AEC0"/>
<path d="M151.12 104.714H140.493L140.459 105.415H151.833L151.12 104.714Z" fill="#A0AEC0"/>
<path d="M145.976 113.241L148.785 111.985L148.507 111.278H145.211L145.976 113.241Z" fill="#A0AEC0"/>
<path d="M145.364 99.6222H140.198L139.926 104.714H150.552L145.364 99.6222Z" fill="#A0AEC0"/>
<path d="M141.019 94.8065L140.775 99.3565H145.658L141.019 94.8065Z" fill="#A0AEC0"/>
<path d="M144.282 108.89L145.109 111.012H148.405L147.148 107.775L154.066 108.161L151.266 105.416H139.892L139.592 111.012H142.209L144.282 108.89Z" fill="#A0AEC0"/>
<path d="M139.581 111.278L139.445 113.836L141.948 111.278H139.581Z" fill="#A0AEC0"/>
<path d="M143.96 99.3567H139.076L139.064 99.6227H144.232L143.96 99.3567Z" fill="#A0AEC0"/>
<path d="M141.645 111.012H139.027L139.016 111.278H141.384L141.645 111.012Z" fill="#A0AEC0"/>
<path d="M144.646 111.278H147.942L147.841 111.012H144.543L144.646 111.278Z" fill="#A0AEC0"/>
<path d="M151.686 104.714H141.06L141.025 105.415H152.4L151.686 104.714Z" fill="#A0AEC0"/>
<path d="M235.151 122.133H5.07696C3.75208 122.131 2.48192 121.605 1.54514 120.669C0.608358 119.733 0.0814725 118.464 0.0800781 117.141V91.5014C0.0815104 90.178 0.608423 88.9093 1.54521 87.9735C2.48199 87.0378 3.75213 86.5114 5.07696 86.51H235.151C236.476 86.5115 237.746 87.0378 238.683 87.9736C239.62 88.9093 240.147 90.178 240.148 91.5014V117.141C240.147 118.464 239.62 119.733 238.683 120.669C237.746 121.605 236.476 122.131 235.151 122.133ZM5.07696 87.9349C4.1303 87.9358 3.2227 88.3119 2.55332 88.9805C1.88395 89.6492 1.50747 90.5558 1.50653 91.5014V117.141C1.50736 118.087 1.88378 118.993 2.55317 119.662C3.22256 120.331 4.13023 120.707 5.07696 120.708H235.151C236.098 120.707 237.006 120.331 237.675 119.662C238.345 118.993 238.721 118.087 238.722 117.141V91.5014C238.721 90.5558 238.344 89.6492 237.675 88.9806C237.006 88.3119 236.098 87.9359 235.151 87.9349H5.07696Z" fill="#A0AEC0"/>
<mask id="mask1_1_77" style="mask-type:luminance" maskUnits="userSpaceOnUse" x="328" y="84" width="161" height="41">
<path d="M488.8 84.51H328.742V124.51H488.8V84.51Z" fill="white"/>
</mask>
<g mask="url(#mask1_1_77)">
<path d="M333.536 97.2508L328.742 84.51L341.723 92.5242L333.536 97.2508ZM334.112 98.7808L334.308 99.3025L343.376 124.51L358.559 84.6661L334.112 98.7808Z" fill="#A0AEC0"/>
<path d="M371.006 100.258H367.726V107.003H363.951V88.4387H371.006C375.461 88.4387 377.441 91.1613 377.441 94.3482C377.441 97.566 375.461 100.258 371.006 100.258ZM370.387 91.1305H367.726V97.566H370.387C372.831 97.566 373.698 96.1117 373.698 94.3482C373.698 92.6156 372.831 91.1305 370.387 91.1305Z" fill="#A0AEC0"/>
<path d="M379.918 107.003V88.4387H383.693V107.003H379.918Z" fill="#A0AEC0"/>
<path d="M400.865 107.003L391.15 94.7505V107.003H387.777V88.4387H390.407L400.123 100.691V88.4387H403.495V107.003H400.865Z" fill="#A0AEC0"/>
<path d="M414.664 100.258H411.384V107.003H407.609V88.4387H414.664C419.119 88.4387 421.099 91.1613 421.099 94.3482C421.099 97.566 419.119 100.258 414.664 100.258ZM414.045 91.1305H411.384V97.566H414.045C416.489 97.566 417.356 96.1117 417.356 94.3482C417.356 92.6156 416.489 91.1305 414.045 91.1305Z" fill="#A0AEC0"/>
<path d="M433.26 107.529C427.567 107.529 423.143 103.414 423.143 97.7208C423.143 92.0278 427.567 87.9127 433.26 87.9127C438.922 87.9127 443.285 92.0278 443.285 97.7208C443.285 103.414 438.922 107.529 433.26 107.529ZM433.26 90.914C429.547 90.914 427.103 93.6984 427.103 97.7208C427.103 101.743 429.547 104.528 433.26 104.528C436.911 104.528 439.324 101.743 439.324 97.7208C439.324 93.6984 436.911 90.914 433.26 90.914Z" fill="#A0AEC0"/>
<path d="M446.504 107.003V88.4387H450.279V107.003H446.504Z" fill="#A0AEC0"/>
<path d="M467.451 107.003L457.736 94.7505V107.003H454.363V88.4387H456.993L466.708 100.691V88.4387H470.081V107.003H467.451Z" fill="#A0AEC0"/>
<path d="M482.518 91.3779V107.003H478.744V91.3779H472.463V88.4387H488.799V91.3779H482.518Z" fill="#A0AEC0"/>
<path d="M373.354 122.873V113.507H375.216V122.873H373.354Z" fill="#A0AEC0"/>
<path d="M385.52 122.873L380.726 116.691V122.873H379.062V113.507H380.36L385.153 119.688V113.507H386.817V122.873H385.52Z" fill="#A0AEC0"/>
<path d="M394.783 114.99V122.873H392.921V114.99H389.822V113.507H397.882V114.99H394.783Z" fill="#A0AEC0"/>
<path d="M400.889 122.873V113.507H406.857V114.99H402.751V117.191H406.094V118.674H402.751V121.39H406.857V122.873L400.889 122.873Z" fill="#A0AEC0"/>
<path d="M418.016 122.873H415.971L413.437 119.142H412.292V122.873H410.43V113.507H414.032C416.2 113.507 417.131 114.818 417.131 116.332C417.131 117.597 416.475 118.596 415.299 118.939L418.016 122.873ZM412.292 117.8H413.727C414.887 117.8 415.299 117.175 415.299 116.348C415.299 115.505 414.887 114.865 413.727 114.865H412.292V117.8Z" fill="#A0AEC0"/>
<path d="M427.602 122.873L426.67 120.563H422.961L422.03 122.873H420.229L424.121 113.507H425.571L429.464 122.873H427.602ZM424.823 115.833L423.465 119.236H426.166L424.823 115.833Z" fill="#A0AEC0"/>
<path d="M436.302 123.076C433.661 123.076 431.387 121.218 431.387 118.19C431.387 115.161 433.661 113.304 436.302 113.304C437.508 113.304 438.729 113.663 439.492 114.256V115.989C438.676 115.241 437.608 114.828 436.5 114.834C434.684 114.834 433.34 116.082 433.34 118.19C433.34 120.282 434.684 121.546 436.5 121.546C437.608 121.551 438.676 121.139 439.492 120.391V122.123C438.729 122.717 437.508 123.076 436.302 123.076Z" fill="#A0AEC0"/>
<path d="M447.092 114.99V122.873H445.23V114.99H442.131V113.507H450.191V114.99H447.092Z" fill="#A0AEC0"/>
<path d="M453.197 122.873V113.507H455.06V122.873H453.197Z" fill="#A0AEC0"/>
<path d="M463.318 122.873H461.914L458.021 113.507H459.93L462.662 120.235L465.364 113.507H467.211L463.318 122.873Z" fill="#A0AEC0"/>
<path d="M470.186 122.873V113.507H476.154V114.99H472.048V117.191H475.391V118.674H472.048V121.39H476.154V122.873L470.186 122.873Z" fill="#A0AEC0"/>
</g>
<path d="M662.866 111.91C655.302 111.91 649.154 105.768 649.154 98.21C649.154 90.6523 655.302 84.51 662.866 84.51C670.43 84.51 676.577 90.6523 676.577 98.21C676.577 105.768 670.43 111.91 662.866 111.91ZM662.866 87.8082C657.133 87.8082 652.469 92.4683 652.469 98.1967C652.469 103.925 657.133 108.585 662.866 108.585C668.599 108.585 673.263 103.925 673.263 98.1967C673.263 92.4683 668.612 87.8082 662.866 87.8082Z" fill="#A0AEC0"/>
<path d="M644.357 124.235C643.061 122.939 643.061 120.843 644.357 119.548L661.703 102.229C663 103.524 663 105.621 661.703 106.916L644.357 124.235Z" fill="#A0AEC0"/>
<path d="M644.357 111.91C643.061 110.615 643.061 108.518 644.357 107.223L655.69 95.8999C656.986 97.1952 656.986 99.2915 655.69 100.587L644.357 111.91Z" fill="#A0AEC0"/>
<path d="M657.64 124.235C656.344 122.94 656.344 120.843 657.64 119.548L662.598 114.594C663.895 115.889 663.895 117.986 662.598 119.281L657.64 124.235Z" fill="#A0AEC0"/>
<path d="M691.291 96.4878C691.906 95.6065 692.2 94.5917 692.2 93.47C692.2 92.4419 691.946 91.4938 691.438 90.6392C690.93 89.7846 690.249 89.1036 689.393 88.6096C688.538 88.1155 687.602 87.8618 686.587 87.8618H681.375C681.121 87.8618 680.947 87.8885 680.88 87.9553C680.8 88.022 680.773 88.1689 680.773 88.4093V106.623C680.773 106.97 681.014 107.143 681.495 107.143L688.672 107.117C689.701 107.117 690.663 106.863 691.531 106.356C692.4 105.848 693.082 105.167 693.576 104.313C694.071 103.458 694.325 102.523 694.325 101.508C694.325 100.48 694.057 99.5189 693.523 98.6242C692.975 97.743 692.226 97.0219 691.291 96.4878ZM683.981 91.8143C683.981 91.3202 684.181 91.0665 684.569 91.0665H686.587C687.228 91.0665 687.79 91.3069 688.271 91.7742C688.752 92.2416 688.992 92.8157 688.992 93.47C688.992 94.111 688.765 94.6718 688.298 95.1391C687.83 95.6065 687.282 95.8468 686.64 95.8468H684.676C684.208 95.8468 683.981 95.6198 683.981 95.1525V91.8143ZM690.075 103.218C689.607 103.685 689.046 103.912 688.351 103.912L684.662 103.939C684.195 103.939 683.967 103.712 683.967 103.244V99.7859C683.967 99.3186 684.195 99.0916 684.662 99.0916H688.351C689.032 99.0916 689.607 99.3186 690.075 99.7859C690.543 100.253 690.77 100.814 690.77 101.508C690.77 102.189 690.529 102.75 690.075 103.218Z" fill="#A0AEC0"/>
<path d="M716.669 95.6598C716.656 95.5529 716.616 95.4595 716.575 95.3794C716.549 95.2725 716.535 95.1657 716.509 95.0589C716.068 93.323 715.226 91.8141 713.983 90.5323C713.769 90.3053 713.529 90.2251 713.235 90.2919C713.114 90.3186 712.981 90.3988 712.86 90.5323C712.767 90.6257 712.553 90.8794 712.219 91.2667C711.885 91.6539 711.644 91.921 711.524 92.0411C711.35 92.2682 711.297 92.5085 711.364 92.7355C711.404 92.9091 711.497 93.0827 711.631 93.2429C712.299 94.004 712.767 94.8987 713.021 95.9135C713.208 96.6345 713.261 97.3556 713.195 98.1167C713.168 98.3704 713.128 98.6375 713.074 98.8912C713.021 99.1315 712.941 99.3719 712.86 99.6122C712.607 100.307 712.246 100.948 711.778 101.535C711.297 102.123 710.735 102.603 710.067 102.991C709.265 103.485 708.397 103.778 707.461 103.845C706.9 103.899 706.352 103.872 705.804 103.765C705.243 103.658 704.695 103.485 704.134 103.231C703.292 102.817 702.57 102.243 701.982 101.508C701.394 100.774 700.993 99.9594 700.766 99.0648C700.673 98.7042 700.619 98.3437 700.579 97.9832C700.526 97.0752 700.632 96.2072 700.94 95.366C701.461 93.9239 702.396 92.8023 703.746 91.9877C704.454 91.5337 705.243 91.2533 706.085 91.1331C706.927 91.013 707.755 91.0664 708.571 91.2667C708.945 91.3602 709.199 91.24 709.319 90.9195L710.134 88.6495C710.174 88.4893 710.161 88.3424 710.107 88.1955C710.054 88.062 709.947 87.9685 709.813 87.9151L709.76 87.9018C708.464 87.5145 707.141 87.3943 705.791 87.5546C705.189 87.6213 704.601 87.7549 704.013 87.9418C704 87.9418 703.973 87.9418 703.96 87.9552L703.906 87.9685C702.624 88.3691 701.461 89.01 700.419 89.8913C699.389 90.7726 698.561 91.8542 697.959 93.1494C697.452 94.2177 697.144 95.326 697.051 96.4743C696.984 97.2354 697.011 97.9832 697.104 98.7176C697.251 100.08 697.665 101.361 698.36 102.563C698.908 103.565 699.617 104.433 700.512 105.18C701.408 105.915 702.396 106.489 703.492 106.876C703.679 106.943 703.88 107.01 704.067 107.063C704.655 107.25 705.269 107.384 705.898 107.437C707.047 107.557 708.196 107.464 709.319 107.183C710.749 106.823 712.045 106.168 713.208 105.247C714.37 104.312 715.252 103.177 715.84 101.829C716.348 100.761 716.656 99.6523 716.763 98.4906C716.763 98.4238 716.776 98.3704 716.776 98.3036C716.856 97.4357 716.829 96.5544 716.669 95.6598Z" fill="#A0AEC0"/>
<path d="M731.824 103.525H725.116C724.969 103.525 724.835 103.471 724.728 103.351C724.621 103.231 724.568 103.097 724.568 102.951V88.3558C724.568 88.209 724.514 88.0754 724.407 87.9553C724.3 87.8351 724.153 87.7817 723.993 87.7817H721.133C720.986 87.7817 720.853 87.8484 720.732 87.9553C720.612 88.0754 720.559 88.209 720.559 88.3558V106.596C720.559 106.756 720.612 106.903 720.732 107.01C720.853 107.117 720.986 107.17 721.133 107.17H731.824C731.985 107.17 732.132 107.117 732.239 107.01C732.346 106.903 732.399 106.756 732.399 106.596V104.072C732.399 103.925 732.346 103.792 732.239 103.685C732.132 103.578 731.985 103.525 731.824 103.525Z" fill="#A0AEC0"/>
<path d="M737.449 91.1998H750.306C750.453 91.1998 750.573 91.1464 750.68 91.0396C750.787 90.9328 750.827 90.8126 750.827 90.6791V88.3023C750.827 88.1688 750.773 88.0619 750.68 87.9551C750.573 87.8483 750.453 87.8082 750.306 87.8082H737.449C737.316 87.8082 737.209 87.8483 737.102 87.9418C736.995 88.0352 736.955 88.1554 736.955 88.3023V90.6791C736.955 90.826 737.008 90.9462 737.102 91.053C737.195 91.1598 737.316 91.1998 737.449 91.1998Z" fill="#A0AEC0"/>
<path d="M750.707 103.939C750.613 103.845 750.493 103.805 750.346 103.805H740.818C740.684 103.805 740.564 103.752 740.457 103.645C740.35 103.538 740.296 103.418 740.296 103.284V100.267C740.296 99.8793 740.51 99.679 740.938 99.679H748.007C748.141 99.679 748.248 99.639 748.341 99.5589C748.435 99.4788 748.475 99.3719 748.475 99.2384V96.8616C748.475 96.7281 748.435 96.6212 748.341 96.5411C748.248 96.461 748.141 96.4209 748.007 96.4209H741.031C740.55 96.4209 740.31 96.2473 740.31 95.9002V93.8839C740.31 93.737 740.27 93.6168 740.176 93.5234C740.083 93.4299 739.962 93.3898 739.815 93.3898H737.463C737.329 93.3898 737.223 93.4299 737.116 93.5234C737.009 93.6168 736.969 93.737 736.969 93.8839V106.676C736.969 106.809 737.022 106.916 737.116 107.023C737.223 107.13 737.329 107.17 737.463 107.17H750.373C750.52 107.17 750.64 107.117 750.734 107.023C750.827 106.916 750.867 106.809 750.867 106.676V104.299C750.854 104.152 750.801 104.032 750.707 103.939Z" fill="#A0AEC0"/>
<path d="M716.883 120.563H750.64C750.774 120.563 750.881 120.456 750.881 120.322V118.613C750.881 118.48 750.774 118.373 750.64 118.373H718.179C717.458 118.373 716.883 118.947 716.883 119.668V120.563Z" fill="#A0AEC0"/>
<mask id="mask2_1_77" style="mask-type:luminance" maskUnits="userSpaceOnUse" x="900" y="86" width="37" height="37">
<path d="M936.615 86.51H900.615V122.51H936.615V86.51Z" fill="white"/>
</mask>
<g mask="url(#mask2_1_77)">
<path d="M918.615 122.51C928.556 122.51 936.615 114.451 936.615 104.51C936.615 94.5689 928.556 86.51 918.615 86.51C908.674 86.51 900.615 94.5689 900.615 104.51C900.615 114.451 908.674 122.51 918.615 122.51Z" fill="#A0AEC0"/>
<path fill-rule="evenodd" clip-rule="evenodd" d="M925.503 102.441C925.47 102.281 925.384 102.155 925.244 102.062C925.105 101.969 924.955 101.939 924.796 101.972C924.636 102.005 924.51 102.092 924.417 102.231L923.37 103.786L922.334 102.281C922.3 102.215 922.254 102.145 922.194 102.072C922.174 102.052 922.158 102.032 922.144 102.012C921.945 101.826 921.706 101.733 921.427 101.733C921.121 101.733 920.878 101.839 920.699 102.052C920.623 102.124 920.57 102.19 920.54 102.251L920.559 102.231L919.483 103.796L918.426 102.231L918.446 102.251C918.406 102.198 918.36 102.138 918.307 102.072C918.293 102.058 918.283 102.045 918.277 102.032C918.078 101.832 917.835 101.733 917.549 101.733C917.283 101.733 917.051 101.826 916.852 102.012C916.832 102.032 916.812 102.052 916.792 102.072C916.738 102.138 916.695 102.198 916.662 102.251L916.682 102.231L915.616 103.796L914.559 102.231L914.579 102.251C914.539 102.198 914.492 102.138 914.439 102.072C914.419 102.052 914.403 102.032 914.39 102.012C914.184 101.826 913.948 101.733 913.682 101.733C913.416 101.733 913.183 101.826 912.984 102.012C912.977 102.019 912.971 102.025 912.964 102.032C912.891 102.098 912.835 102.165 912.795 102.231L911.908 103.547C911.814 103.686 911.785 103.836 911.818 103.995C911.851 104.155 911.937 104.281 912.077 104.374C912.217 104.467 912.366 104.497 912.526 104.464C912.685 104.431 912.811 104.348 912.904 104.215L913.682 103.058L914.708 104.574C914.742 104.653 914.805 104.74 914.898 104.833C915.084 105.025 915.323 105.122 915.616 105.122C915.901 105.122 916.144 105.025 916.343 104.833C916.35 104.813 916.36 104.799 916.373 104.793C916.426 104.72 916.473 104.657 916.513 104.603L917.549 103.068L918.616 104.633C918.645 104.68 918.682 104.733 918.725 104.793C918.745 104.806 918.765 104.823 918.785 104.843C918.985 105.029 919.217 105.122 919.483 105.122C919.762 105.122 920.001 105.029 920.201 104.843C920.214 104.823 920.231 104.806 920.25 104.793C920.31 104.713 920.357 104.64 920.39 104.574L921.427 103.068L922.463 104.574C922.497 104.64 922.543 104.713 922.603 104.793C922.623 104.806 922.643 104.823 922.663 104.843C922.855 105.029 923.091 105.122 923.37 105.122C923.656 105.122 923.899 105.025 924.098 104.833C924.105 104.813 924.115 104.799 924.128 104.793C924.174 104.733 924.214 104.68 924.247 104.633L925.414 102.899C925.507 102.753 925.537 102.6 925.503 102.441Z" fill="#171923"/>
<path fill-rule="evenodd" clip-rule="evenodd" d="M920.661 93.4008C922.807 93.4008 924.641 94.1649 926.163 95.6933C927.684 97.2084 928.445 99.0391 928.445 101.185V105.272C928.445 107.419 927.684 109.252 926.163 110.774C924.641 112.296 922.807 113.057 920.661 113.057H916.574C914.427 113.057 912.597 112.296 911.082 110.774C909.553 109.252 908.789 107.419 908.789 105.272V101.185C908.789 99.0391 909.553 97.2084 911.082 95.6933C912.597 94.1649 914.427 93.4008 916.574 93.4008H920.661ZM920.661 111.462C922.368 111.462 923.827 110.857 925.036 109.648C926.246 108.439 926.85 106.98 926.85 105.272V101.185C926.85 99.4778 926.246 98.0224 925.036 96.8196C923.827 95.6036 922.368 94.9956 920.661 94.9956H916.574C914.866 94.9956 913.411 95.6036 912.208 96.8196C910.992 98.0224 910.384 99.4778 910.384 101.185V105.272C910.384 106.98 910.992 108.439 912.208 109.648C913.411 110.857 914.866 111.462 916.574 111.462H920.661Z" fill="#171923"/>
<path fill-rule="evenodd" clip-rule="evenodd" d="M922.511 114.241C922.352 114.082 922.163 114.002 921.943 114.002H915.325C915.105 114.002 914.919 114.082 914.767 114.241C914.607 114.394 914.527 114.58 914.527 114.8C914.527 115.019 914.607 115.208 914.767 115.368C914.919 115.521 915.105 115.597 915.325 115.597H921.943C922.163 115.597 922.352 115.521 922.511 115.368C922.664 115.208 922.741 115.019 922.741 114.8C922.741 114.58 922.664 114.394 922.511 114.241Z" fill="#171923"/>
</g>
<path d="M947.137 113.279H943.588L948.996 97.6149H953.264L958.664 113.279H955.114L951.191 101.194H951.069L947.137 113.279ZM946.915 107.122H955.298V109.707H946.915V107.122ZM961.333 113.279L958.136 101.531H961.432L963.253 109.424H963.36L965.257 101.531H968.492L970.419 109.378H970.519L972.309 101.531H975.597L972.408 113.279H968.958L966.939 105.891H966.794L964.775 113.279H961.333ZM979.653 113.279L976.456 101.531H979.753L981.573 109.424H981.68L983.577 101.531H986.812L988.74 109.378H988.839L990.629 101.531H993.918L990.728 113.279H987.279L985.26 105.891H985.114L983.095 113.279H979.653ZM997.973 113.279L994.776 101.531H998.073L999.893 109.424H1000L1001.9 101.531H1005.13L1007.06 109.378H1007.16L1008.95 101.531H1012.24L1009.05 113.279H1005.6L1003.58 105.891H1003.43L1001.42 113.279H997.973ZM1023.75 104.881L1020.77 105.065C1020.72 104.81 1020.61 104.58 1020.44 104.376C1020.27 104.167 1020.05 104.002 1019.77 103.879C1019.5 103.752 1019.18 103.688 1018.8 103.688C1018.3 103.688 1017.87 103.795 1017.53 104.009C1017.18 104.218 1017.01 104.499 1017.01 104.85C1017.01 105.131 1017.12 105.368 1017.34 105.562C1017.57 105.756 1017.95 105.911 1018.5 106.028L1020.62 106.457C1021.77 106.691 1022.62 107.069 1023.18 107.589C1023.74 108.109 1024.02 108.792 1024.02 109.639C1024.02 110.408 1023.79 111.084 1023.34 111.665C1022.89 112.247 1022.27 112.701 1021.49 113.027C1020.71 113.348 1019.81 113.509 1018.79 113.509C1017.23 113.509 1015.99 113.185 1015.07 112.537C1014.15 111.885 1013.61 110.997 1013.46 109.876L1016.66 109.707C1016.76 110.182 1016.99 110.544 1017.36 110.793C1017.74 111.038 1018.21 111.161 1018.79 111.161C1019.37 111.161 1019.82 111.051 1020.17 110.832C1020.52 110.607 1020.7 110.319 1020.71 109.967C1020.7 109.672 1020.58 109.429 1020.33 109.241C1020.09 109.047 1019.71 108.899 1019.2 108.797L1017.17 108.392C1016.02 108.162 1015.16 107.765 1014.6 107.199C1014.05 106.633 1013.77 105.911 1013.77 105.034C1013.77 104.279 1013.97 103.629 1014.38 103.084C1014.79 102.538 1015.37 102.117 1016.12 101.822C1016.87 101.526 1017.74 101.378 1018.75 101.378C1020.23 101.378 1021.4 101.692 1022.25 102.319C1023.11 102.946 1023.61 103.8 1023.75 104.881ZM1031.38 113.509C1030.19 113.509 1029.16 113.256 1028.3 112.752C1027.43 112.242 1026.77 111.533 1026.3 110.625C1025.83 109.712 1025.6 108.654 1025.6 107.451C1025.6 106.237 1025.83 105.177 1026.3 104.269C1026.77 103.356 1027.43 102.648 1028.3 102.143C1029.16 101.633 1030.19 101.378 1031.38 101.378C1032.57 101.378 1033.59 101.633 1034.45 102.143C1035.32 102.648 1035.99 103.356 1036.46 104.269C1036.93 105.177 1037.16 106.237 1037.16 107.451C1037.16 108.654 1036.93 109.712 1036.46 110.625C1035.99 111.533 1035.32 112.242 1034.45 112.752C1033.59 113.256 1032.57 113.509 1031.38 113.509ZM1031.39 110.985C1031.93 110.985 1032.39 110.832 1032.75 110.526C1033.11 110.215 1033.38 109.792 1033.57 109.256C1033.75 108.721 1033.85 108.111 1033.85 107.428C1033.85 106.745 1033.75 106.135 1033.57 105.6C1033.38 105.065 1033.11 104.641 1032.75 104.33C1032.39 104.019 1031.93 103.864 1031.39 103.864C1030.85 103.864 1030.39 104.019 1030.02 104.33C1029.65 104.641 1029.37 105.065 1029.18 105.6C1029 106.135 1028.91 106.745 1028.91 107.428C1028.91 108.111 1029 108.721 1029.18 109.256C1029.37 109.792 1029.65 110.215 1030.02 110.526C1030.39 110.832 1030.85 110.985 1031.39 110.985ZM1039.28 113.279V101.531H1042.39V103.604H1042.52C1042.77 102.915 1043.18 102.372 1043.75 101.975C1044.32 101.577 1045 101.378 1045.8 101.378C1046.6 101.378 1047.29 101.579 1047.85 101.982C1048.42 102.38 1048.8 102.92 1048.99 103.604H1049.11C1049.35 102.931 1049.78 102.393 1050.41 101.99C1051.04 101.582 1051.79 101.378 1052.65 101.378C1053.75 101.378 1054.64 101.727 1055.32 102.426C1056.01 103.119 1056.35 104.103 1056.35 105.378V113.279H1053.1V106.021C1053.1 105.368 1052.93 104.879 1052.58 104.552C1052.23 104.226 1051.8 104.063 1051.28 104.063C1050.69 104.063 1050.23 104.251 1049.9 104.629C1049.56 105.001 1049.4 105.493 1049.4 106.105V113.279H1046.24V105.952C1046.24 105.376 1046.07 104.917 1045.74 104.575C1045.42 104.234 1044.99 104.063 1044.45 104.063C1044.09 104.063 1043.76 104.154 1043.47 104.338C1043.19 104.517 1042.96 104.769 1042.79 105.095C1042.62 105.416 1042.54 105.794 1042.54 106.227V113.279H1039.28ZM1064.28 113.509C1063.07 113.509 1062.03 113.264 1061.16 112.774C1060.29 112.28 1059.62 111.581 1059.15 110.679C1058.69 109.771 1058.45 108.698 1058.45 107.459C1058.45 106.25 1058.69 105.19 1059.15 104.277C1059.62 103.364 1060.28 102.653 1061.14 102.143C1061.99 101.633 1063 101.378 1064.15 101.378C1064.92 101.378 1065.65 101.503 1066.31 101.753C1066.99 101.998 1067.57 102.367 1068.07 102.862C1068.58 103.356 1068.97 103.979 1069.25 104.728C1069.53 105.473 1069.67 106.345 1069.67 107.344V108.239H1059.75V106.22H1066.6C1066.6 105.75 1066.5 105.335 1066.3 104.973C1066.09 104.611 1065.81 104.328 1065.45 104.124C1065.09 103.915 1064.68 103.81 1064.2 103.81C1063.71 103.81 1063.27 103.925 1062.89 104.154C1062.51 104.379 1062.21 104.682 1062 105.065C1061.79 105.442 1061.68 105.863 1061.67 106.327V108.246C1061.67 108.828 1061.78 109.33 1061.99 109.753C1062.21 110.176 1062.52 110.503 1062.92 110.732C1063.32 110.962 1063.79 111.076 1064.33 111.076C1064.69 111.076 1065.03 111.025 1065.33 110.924C1065.63 110.822 1065.89 110.669 1066.1 110.465C1066.31 110.261 1066.48 110.011 1066.59 109.715L1069.6 109.914C1069.45 110.638 1069.14 111.27 1068.66 111.811C1068.19 112.346 1067.59 112.764 1066.84 113.065C1066.1 113.361 1065.25 113.509 1064.28 113.509Z" fill="#A0AEC0"/>
</svg>
