<svg width="75" height="75" viewBox="0 0 75 75" fill="none" xmlns="http://www.w3.org/2000/svg">
<g filter="url(#filter0_dd_1_685)">
<rect x="12.6602" y="2.97998" width="50" height="50" rx="8" fill="#0042DA"/>
<path d="M45.4717 23.2923C45.4719 22.7443 45.3281 22.2059 45.0546 21.7311C44.7811 21.2562 44.3875 20.8617 43.9134 20.587C43.4393 20.3122 42.9012 20.167 42.3533 20.1659C41.8053 20.1647 41.2667 20.3077 40.7914 20.5804C40.3161 20.8531 39.9209 21.246 39.6454 21.7197C39.3699 22.1933 39.2238 22.7311 39.2217 23.2791C39.2196 23.827 39.3617 24.3659 39.6336 24.8416C39.9055 25.3174 40.2978 25.7132 40.771 25.9895C40.6592 27.4095 39.7905 27.7962 37.1089 28.3538C36.2417 28.5335 35.3545 28.7176 34.5352 29.034V22.8719C35.1309 22.5279 35.5965 21.997 35.8598 21.3614C36.123 20.7259 36.1692 20.0212 35.9912 19.3567C35.8131 18.6922 35.4208 18.1051 34.875 17.6863C34.3293 17.2675 33.6606 17.0405 32.9727 17.0405C32.2847 17.0405 31.616 17.2675 31.0703 17.6863C30.5245 18.1051 30.1322 18.6922 29.9541 19.3567C29.7761 20.0212 29.8223 20.7259 30.0855 21.3614C30.3488 21.997 30.8144 22.5279 31.4102 22.8719V33.0877C30.8153 33.4312 30.3502 33.9611 30.0868 34.5955C29.8234 35.2299 29.7763 35.9334 29.9529 36.5972C30.1294 37.261 30.5198 37.8482 31.0636 38.2678C31.6074 38.6875 32.2743 38.9163 32.9612 38.9189C33.6481 38.9214 34.3167 38.6976 34.8636 38.282C35.4105 37.8664 35.8053 37.2822 35.9868 36.6197C36.1683 35.9572 36.1265 35.2533 35.8678 34.617C35.6091 33.9807 35.1479 33.4473 34.5557 33.0994C34.6724 32.2205 35.3369 31.9114 37.7422 31.4138C39.0815 31.137 40.4658 30.8504 41.6377 30.0979C43.0537 29.1907 43.812 27.8138 43.9014 26.0017C44.3783 25.7282 44.7747 25.3336 45.0504 24.8579C45.3261 24.3822 45.4714 23.8421 45.4717 23.2923ZM32.9717 18.6048C33.2807 18.6048 33.5828 18.6964 33.8398 18.8681C34.0967 19.0398 34.297 19.2838 34.4152 19.5693C34.5335 19.8548 34.5644 20.169 34.5042 20.4721C34.4439 20.7752 34.2951 21.0536 34.0765 21.2721C33.858 21.4906 33.5796 21.6395 33.2765 21.6997C32.9734 21.76 32.6592 21.7291 32.3737 21.6108C32.0882 21.4926 31.8442 21.2923 31.6725 21.0353C31.5008 20.7784 31.4092 20.4763 31.4092 20.1673C31.4092 19.7529 31.5738 19.3554 31.8668 19.0624C32.1599 18.7694 32.5573 18.6048 32.9717 18.6048ZM32.9717 37.3548C32.6626 37.3548 32.3606 37.2631 32.1036 37.0914C31.8467 36.9197 31.6464 36.6757 31.5281 36.3902C31.4099 36.1047 31.3789 35.7905 31.4392 35.4874C31.4995 35.1843 31.6483 34.9059 31.8668 34.6874C32.0853 34.4689 32.3638 34.3201 32.6669 34.2598C32.9699 34.1995 33.2841 34.2304 33.5696 34.3487C33.8551 34.467 34.0992 34.6672 34.2709 34.9242C34.4425 35.1811 34.5342 35.4832 34.5342 35.7923C34.5342 36.2067 34.3696 36.6041 34.0765 36.8971C33.7835 37.1901 33.3861 37.3548 32.9717 37.3548ZM42.3467 24.8548C42.0376 24.8548 41.7356 24.7631 41.4786 24.5914C41.2217 24.4197 41.0214 24.1757 40.9031 23.8902C40.7849 23.6047 40.7539 23.2905 40.8142 22.9874C40.8745 22.6843 41.0233 22.4059 41.2418 22.1874C41.4603 21.9689 41.7388 21.8201 42.0419 21.7598C42.3449 21.6995 42.6591 21.7304 42.9446 21.8487C43.2301 21.967 43.4742 22.1672 43.6459 22.4242C43.8175 22.6811 43.9092 22.9832 43.9092 23.2923C43.9092 23.7067 43.7446 24.1041 43.4515 24.3971C43.1585 24.6901 42.7611 24.8548 42.3467 24.8548Z" fill="white"/>
</g>
<defs>
<filter id="filter0_dd_1_685" x="0.660156" y="0.97998" width="74" height="74" filterUnits="userSpaceOnUse" color-interpolation-filters="sRGB">
<feFlood flood-opacity="0" result="BackgroundImageFix"/>
<feColorMatrix in="SourceAlpha" type="matrix" values="0 0 0 0 0 0 0 0 0 0 0 0 0 0 0 0 0 0 127 0" result="hardAlpha"/>
<feMorphology radius="2" operator="erode" in="SourceAlpha" result="effect1_dropShadow_1_685"/>
<feOffset dy="4"/>
<feGaussianBlur stdDeviation="3"/>
<feComposite in2="hardAlpha" operator="out"/>
<feColorMatrix type="matrix" values="0 0 0 0 0 0 0 0 0 0 0 0 0 0 0 0 0 0 0.05 0"/>
<feBlend mode="normal" in2="BackgroundImageFix" result="effect1_dropShadow_1_685"/>
<feColorMatrix in="SourceAlpha" type="matrix" values="0 0 0 0 0 0 0 0 0 0 0 0 0 0 0 0 0 0 127 0" result="hardAlpha"/>
<feMorphology radius="3" operator="erode" in="SourceAlpha" result="effect2_dropShadow_1_685"/>
<feOffset dy="10"/>
<feGaussianBlur stdDeviation="7.5"/>
<feComposite in2="hardAlpha" operator="out"/>
<feColorMatrix type="matrix" values="0 0 0 0 0 0 0 0 0 0 0 0 0 0 0 0 0 0 0.1 0"/>
<feBlend mode="normal" in2="effect1_dropShadow_1_685" result="effect2_dropShadow_1_685"/>
<feBlend mode="normal" in="SourceGraphic" in2="effect2_dropShadow_1_685" result="shape"/>
</filter>
</defs>
</svg>
