<svg width="75" height="75" viewBox="0 0 75 75" fill="none" xmlns="http://www.w3.org/2000/svg">
<g filter="url(#filter0_dd_1_692)">
<rect x="12.3301" y="2.97998" width="50" height="50" rx="8" fill="#0042DA"/>
<path d="M45.1426 19.3862C45.1419 18.7648 44.8948 18.1691 44.4554 17.7297C44.016 17.2903 43.4202 17.0431 42.7988 17.0425H31.8613C31.2399 17.0431 30.6442 17.2903 30.2048 17.7297C29.7654 18.1691 29.5182 18.7648 29.5176 19.3862V36.5737C29.5182 37.1951 29.7654 37.7909 30.2048 38.2303C30.6442 38.6697 31.2399 38.9168 31.8613 38.9175H42.7988C43.4202 38.9168 44.016 38.6697 44.4554 38.2303C44.8948 37.7909 45.1419 37.1951 45.1426 36.5737V19.3862ZM33.0332 36.5737C32.8014 36.5737 32.5749 36.505 32.3821 36.3762C32.1894 36.2475 32.0392 36.0644 31.9505 35.8503C31.8618 35.6362 31.8386 35.4006 31.8838 35.1732C31.9291 34.9459 32.0407 34.7371 32.2046 34.5732C32.3685 34.4093 32.5773 34.2977 32.8046 34.2525C33.0319 34.2073 33.2675 34.2305 33.4817 34.3192C33.6958 34.4079 33.8788 34.5581 34.0076 34.7508C34.1363 34.9435 34.2051 35.1701 34.2051 35.4019C34.2051 35.7127 34.0816 36.0107 33.8618 36.2305C33.6421 36.4503 33.344 36.5737 33.0332 36.5737ZM33.0332 32.6675C32.8014 32.6675 32.5749 32.5988 32.3821 32.47C32.1894 32.3412 32.0392 32.1582 31.9505 31.9441C31.8618 31.7299 31.8386 31.4943 31.8838 31.267C31.9291 31.0397 32.0407 30.8309 32.2046 30.667C32.3685 30.5031 32.5773 30.3915 32.8046 30.3462C33.0319 30.301 33.2675 30.3242 33.4817 30.4129C33.6958 30.5016 33.8788 30.6518 34.0076 30.8445C34.1363 31.0373 34.2051 31.2638 34.2051 31.4956C34.2051 31.8064 34.0816 32.1045 33.8618 32.3242C33.6421 32.544 33.344 32.6675 33.0332 32.6675ZM33.0332 28.7612C32.8014 28.7612 32.5749 28.6925 32.3821 28.5637C32.1894 28.435 32.0392 28.2519 31.9505 28.0378C31.8618 27.8237 31.8386 27.5881 31.8838 27.3607C31.9291 27.1334 32.0407 26.9246 32.2046 26.7607C32.3685 26.5968 32.5773 26.4852 32.8046 26.44C33.0319 26.3948 33.2675 26.418 33.4817 26.5067C33.6958 26.5954 33.8788 26.7456 34.0076 26.9383C34.1363 27.131 34.2051 27.3576 34.2051 27.5894C34.2051 27.9002 34.0816 28.1982 33.8618 28.418C33.6421 28.6378 33.344 28.7612 33.0332 28.7612ZM37.3301 36.5737C37.0983 36.5737 36.8717 36.505 36.679 36.3762C36.4863 36.2475 36.3361 36.0644 36.2474 35.8503C36.1587 35.6362 36.1355 35.4006 36.1807 35.1732C36.2259 34.9459 36.3375 34.7371 36.5014 34.5732C36.6653 34.4093 36.8741 34.2977 37.1015 34.2525C37.3288 34.2073 37.5644 34.2305 37.7785 34.3192C37.9927 34.4079 38.1757 34.5581 38.3045 34.7508C38.4332 34.9435 38.502 35.1701 38.502 35.4019C38.502 35.7127 38.3785 36.0107 38.1587 36.2305C37.9389 36.4503 37.6409 36.5737 37.3301 36.5737ZM37.3301 32.6675C37.0983 32.6675 36.8717 32.5988 36.679 32.47C36.4863 32.3412 36.3361 32.1582 36.2474 31.9441C36.1587 31.7299 36.1355 31.4943 36.1807 31.267C36.2259 31.0397 36.3375 30.8309 36.5014 30.667C36.6653 30.5031 36.8741 30.3915 37.1015 30.3462C37.3288 30.301 37.5644 30.3242 37.7785 30.4129C37.9927 30.5016 38.1757 30.6518 38.3045 30.8445C38.4332 31.0373 38.502 31.2638 38.502 31.4956C38.502 31.8064 38.3785 32.1045 38.1587 32.3242C37.9389 32.544 37.6409 32.6675 37.3301 32.6675ZM37.3301 28.7612C37.0983 28.7612 36.8717 28.6925 36.679 28.5637C36.4863 28.435 36.3361 28.2519 36.2474 28.0378C36.1587 27.8237 36.1355 27.5881 36.1807 27.3607C36.2259 27.1334 36.3375 26.9246 36.5014 26.7607C36.6653 26.5968 36.8741 26.4852 37.1015 26.44C37.3288 26.3948 37.5644 26.418 37.7785 26.5067C37.9927 26.5954 38.1757 26.7456 38.3045 26.9383C38.4332 27.131 38.502 27.3576 38.502 27.5894C38.502 27.9002 38.3785 28.1982 38.1587 28.418C37.9389 28.6378 37.6409 28.7612 37.3301 28.7612ZM42.7988 35.4019C42.7988 35.7127 42.6754 36.0107 42.4556 36.2305C42.2358 36.4503 41.9378 36.5737 41.627 36.5737C41.3162 36.5737 41.0181 36.4503 40.7983 36.2305C40.5785 36.0107 40.4551 35.7127 40.4551 35.4019V31.4956C40.4551 31.1848 40.5785 30.8867 40.7983 30.667C41.0181 30.4472 41.3162 30.3237 41.627 30.3237C41.9378 30.3237 42.2358 30.4472 42.4556 30.667C42.6754 30.8867 42.7988 31.1848 42.7988 31.4956V35.4019ZM41.627 28.7612C41.3952 28.7612 41.1686 28.6925 40.9759 28.5637C40.7832 28.435 40.633 28.2519 40.5443 28.0378C40.4556 27.8237 40.4324 27.5881 40.4776 27.3607C40.5228 27.1334 40.6344 26.9246 40.7983 26.7607C40.9622 26.5968 41.171 26.4852 41.3983 26.44C41.6257 26.3948 41.8613 26.418 42.0754 26.5067C42.2895 26.5954 42.4726 26.7456 42.6013 26.9383C42.7301 27.131 42.7988 27.3576 42.7988 27.5894C42.7988 27.9002 42.6754 28.1982 42.4556 28.418C42.2358 28.6378 41.9378 28.7612 41.627 28.7612ZM42.5698 23.8447C42.4234 23.9913 42.2247 24.0736 42.0176 24.0737H32.6426C32.4354 24.0737 32.2367 23.9914 32.0902 23.8449C31.9436 23.6984 31.8613 23.4997 31.8613 23.2925V20.1675C31.8613 19.9603 31.9436 19.7616 32.0902 19.6151C32.2367 19.4685 32.4354 19.3862 32.6426 19.3862H42.0176C42.2248 19.3862 42.4235 19.4685 42.57 19.6151C42.7165 19.7616 42.7988 19.9603 42.7988 20.1675V23.2925C42.7987 23.4996 42.7164 23.6983 42.5698 23.8447Z" fill="white"/>
</g>
<defs>
<filter id="filter0_dd_1_692" x="0.330078" y="0.97998" width="74" height="74" filterUnits="userSpaceOnUse" color-interpolation-filters="sRGB">
<feFlood flood-opacity="0" result="BackgroundImageFix"/>
<feColorMatrix in="SourceAlpha" type="matrix" values="0 0 0 0 0 0 0 0 0 0 0 0 0 0 0 0 0 0 127 0" result="hardAlpha"/>
<feMorphology radius="2" operator="erode" in="SourceAlpha" result="effect1_dropShadow_1_692"/>
<feOffset dy="4"/>
<feGaussianBlur stdDeviation="3"/>
<feComposite in2="hardAlpha" operator="out"/>
<feColorMatrix type="matrix" values="0 0 0 0 0 0 0 0 0 0 0 0 0 0 0 0 0 0 0.05 0"/>
<feBlend mode="normal" in2="BackgroundImageFix" result="effect1_dropShadow_1_692"/>
<feColorMatrix in="SourceAlpha" type="matrix" values="0 0 0 0 0 0 0 0 0 0 0 0 0 0 0 0 0 0 127 0" result="hardAlpha"/>
<feMorphology radius="3" operator="erode" in="SourceAlpha" result="effect2_dropShadow_1_692"/>
<feOffset dy="10"/>
<feGaussianBlur stdDeviation="7.5"/>
<feComposite in2="hardAlpha" operator="out"/>
<feColorMatrix type="matrix" values="0 0 0 0 0 0 0 0 0 0 0 0 0 0 0 0 0 0 0.1 0"/>
<feBlend mode="normal" in2="effect1_dropShadow_1_692" result="effect2_dropShadow_1_692"/>
<feBlend mode="normal" in="SourceGraphic" in2="effect2_dropShadow_1_692" result="shape"/>
</filter>
</defs>
</svg>
