<svg width="1400" height="289" viewBox="0 0 1400 289" fill="none" xmlns="http://www.w3.org/2000/svg">
<rect y="0.659912" width="119" height="120" rx="6" fill="#1A202C"/>
<rect x="0.5" y="1.15991" width="118" height="119" rx="5.5" stroke="white" stroke-opacity="0.16"/>
<path d="M82.4453 80.6581H36.3437C34.5561 80.6581 33.0508 79.1998 33.0508 77.3653V44.0591C33.0508 42.2715 34.5091 40.7661 36.3437 40.7661H82.4453C84.233 40.7661 85.7384 42.2244 85.7384 44.0591V77.3653C85.7384 79.1998 84.28 80.6581 82.4453 80.6581Z" fill="#E3E3E3"/>
<path opacity="0.1" d="M39.6366 80.6582L59.3474 64.8048L59.4886 63.958L39.1662 49.3279L39.1191 79.9526L39.6366 80.6582Z" fill="#231F20"/>
<path d="M36.3437 80.658C34.5091 80.658 33.0508 79.1997 33.0508 77.365V44.0119C33.0508 42.1772 34.5091 41.8479 36.3437 41.8479C38.1784 41.8479 39.6367 42.2242 39.6367 44.0119V80.658H36.3437Z" fill="#D54B3D"/>
<path d="M36.3437 42.3183C38.6959 42.3183 39.1663 43.024 39.1663 44.0119V80.1874H36.3437C34.7914 80.1874 33.5212 78.9173 33.5212 77.365V44.0119C33.5212 42.9769 33.9916 42.3183 36.3437 42.3183ZM36.3437 41.8479C34.5091 41.8479 33.0508 42.2242 33.0508 44.0119V77.365C33.0508 79.1997 34.5091 80.658 36.3437 80.658H39.6367V44.0119C39.6367 42.1772 38.1784 41.8479 36.3437 41.8479Z" fill="#D72B27"/>
<path d="M82.4452 80.658H79.1523V43.9178C79.1523 42.0831 80.6107 41.8479 82.4452 41.8479C84.2799 41.8479 85.7382 42.0831 85.7382 43.9178V77.412C85.7382 79.1997 84.2799 80.658 82.4452 80.658Z" fill="#D54B3D"/>
<path d="M82.4452 42.3183C84.5623 42.3183 85.2678 42.7417 85.2678 43.9178V77.412C85.2678 78.9645 83.9977 80.2346 82.4452 80.2346H79.6227V43.9178C79.6227 42.6947 80.3283 42.3183 82.4452 42.3183ZM82.4452 41.8479C80.6107 41.8479 79.1523 42.0831 79.1523 43.9178V80.705H82.4452C84.2799 80.705 85.7382 79.2467 85.7382 77.412V43.9178C85.7382 42.0831 84.2799 41.8479 82.4452 41.8479Z" fill="#D72B27"/>
<path d="M68.3324 80.6581L33.3262 45.38L35.1675 46.1289L59.5355 63.6757L85.7382 44.4619V77.4122C85.7382 79.1997 84.2799 80.6581 82.4451 80.6581H68.3324Z" fill="url(#paint0_linear_1_455)"/>
<path d="M59.3491 64.8047L34.4635 46.7404C33.0052 45.6584 32.5818 43.5885 33.6638 42.1302C34.7458 40.6719 36.8627 40.3426 38.3681 41.4246L59.3961 56.7134L80.5652 41.2364C82.0236 40.1544 84.0935 40.4837 85.1754 41.9891C86.2574 43.4474 85.928 45.5173 84.4226 46.5993L59.3491 64.8047Z" fill="#D54B3D"/>
<path d="M82.4465 41.0483C83.3403 41.0483 84.1871 41.4717 84.7516 42.2244C85.6454 43.4945 85.363 45.2351 84.1401 46.1759L59.3485 64.2403L34.7453 46.3641C33.4752 45.4233 33.1459 43.6356 34.0397 42.4125C34.5572 41.7069 35.451 41.2365 36.3918 41.2365C37.0034 41.2365 37.6149 41.4246 38.0854 41.801L59.0663 57.0428L59.3485 57.2309L59.6309 57.0428L80.7528 41.5658C81.2704 41.2365 81.835 41.0483 82.4465 41.0483ZM82.4465 40.5779C81.7878 40.5779 81.0822 40.7661 80.5176 41.1894L59.3485 56.6664L38.3206 41.3776C37.7561 40.9542 37.0504 40.7661 36.3448 40.7661C35.3099 40.7661 34.2749 41.2365 33.6163 42.1303C32.5814 43.5886 33.0048 45.6585 34.4631 46.7405L59.3485 64.8519L84.3752 46.5993C85.8336 45.5173 86.1628 43.4945 85.1278 41.9892C84.4692 41.0483 83.4813 40.5779 82.4465 40.5779Z" fill="#D72B27"/>
<rect x="183" y="0.659912" width="119" height="120" rx="6" fill="#1A202C"/>
<rect x="183.5" y="1.15991" width="118" height="119" rx="5.5" stroke="white" stroke-opacity="0.16"/>
<path d="M255.332 59.0865C255.697 59.0865 256.063 59.0865 256.428 59.0865C256.661 58.5878 256.661 57.8567 256.428 57.0257C256.196 55.7959 255.83 54.965 255.099 55.0647C254.368 55.1977 254.368 56.1615 254.6 57.3914C254.7 58.1225 254.966 58.7207 255.332 59.0865Z" fill="#A0AEC0"/>
<path d="M248.882 60.1833C249.381 60.416 249.746 60.5489 249.846 60.416C249.979 60.2831 249.846 60.1833 249.713 59.9175C249.481 59.4189 248.849 59.0533 248.384 58.8206C247.154 58.322 245.825 58.4551 244.728 59.3191C244.362 59.5517 243.997 59.9175 244.129 60.1833C244.129 60.3162 244.262 60.3162 244.362 60.3162C244.595 60.3162 245.692 59.8178 246.921 59.718C247.653 59.6849 248.384 59.9506 248.882 60.1833Z" fill="#A0AEC0"/>
<path d="M247.787 60.7816C247.056 60.9144 246.69 61.1471 246.457 61.3798C246.225 61.6125 246.092 61.7456 246.092 61.8785V62.0113H246.225C246.358 62.0113 246.723 61.8785 246.723 61.8785C247.687 61.5129 248.319 61.5129 248.917 61.6458C249.282 61.6458 249.415 61.7787 249.515 61.6458C249.515 61.6458 249.515 61.5129 249.515 61.4131C249.482 61.0476 248.751 60.6818 247.787 60.7816Z" fill="#A0AEC0"/>
<path d="M248.151 61.6454C248.384 61.147 248.384 60.0501 248.151 59.2192C247.919 57.9894 247.553 57.2583 246.689 57.2583C245.958 57.3912 245.958 58.355 246.19 59.6845C246.323 60.5488 246.689 61.0141 246.789 61.3797C247.42 62.3768 247.786 62.1108 248.151 61.6454Z" fill="#A0AEC0"/>
<path d="M253.137 62.9752C253.635 63.2079 254.101 63.1081 254.366 62.7426C254.5 62.3768 254.234 61.8783 253.768 61.6457C253.27 61.413 252.804 61.5128 252.538 61.8783C252.273 62.2439 252.638 62.7426 253.137 62.9752Z" fill="#A0AEC0"/>
<path d="M256.163 60.3162C255.797 60.3162 255.432 60.6817 255.432 61.2799C255.432 61.7786 255.664 62.244 256.163 62.244C256.529 62.244 256.894 61.8784 256.894 61.2799C256.794 60.7815 256.529 60.3162 256.163 60.3162Z" fill="#A0AEC0"/>
<path d="M230.403 69.7884C230.27 69.6555 230.17 69.6555 230.037 69.7884C229.904 69.7884 229.804 69.7884 229.671 69.7884C229.439 69.7884 229.173 69.6555 229.073 69.4228C228.974 69.1902 228.94 68.8246 229.073 68.3262L229.206 68.0935C229.572 67.3621 230.07 66.2655 229.439 65.1686C228.94 64.3043 228.342 63.839 227.478 63.7061C226.614 63.5732 225.783 63.9388 225.284 64.5703C224.42 65.5341 224.32 66.7639 224.42 67.2293C224.42 67.3621 224.553 67.4619 224.653 67.4619C224.786 67.4619 225.018 67.329 225.151 66.9632V66.8304C225.151 66.5977 225.284 66.3319 225.517 65.9661C225.75 65.6006 226.115 65.3679 226.481 65.3679C226.846 65.235 227.345 65.3679 227.711 65.6006C228.309 65.9661 228.575 66.6975 228.309 67.4286C227.943 67.7944 227.81 68.3926 227.81 69.0239C227.943 70.1208 228.674 70.6193 229.273 70.7191C229.871 70.7191 230.369 70.3535 230.369 70.1208C230.502 69.9215 230.403 69.9215 230.403 69.7884Z" fill="#A0AEC0"/>
<path d="M265.768 67.728C265.768 67.5951 265.635 67.1298 265.403 66.3984L264.904 65.3018C265.768 64.072 265.768 62.8753 265.635 62.2771C265.502 61.546 265.137 60.8146 264.539 60.0835C263.94 59.3524 262.478 58.621 260.65 58.1226L259.686 57.8899C259.686 57.8899 259.686 55.5633 259.553 54.5994C259.553 53.8682 259.42 52.7714 259.054 51.6746C258.689 50.2122 257.958 48.8827 256.994 48.0185C259.42 45.4593 261.016 42.5344 261.016 40.1081C261.016 35.4882 255.299 34.0258 248.12 36.9506L246.657 37.5489C246.657 37.5489 243.998 34.8899 243.865 34.8899C235.988 27.8437 210.828 55.9289 218.838 62.7424L220.533 64.2049C220.034 65.4347 219.935 66.764 220.034 68.2265C220.267 70.0545 221.264 71.8825 222.693 73.345C224.156 74.6745 226.083 75.5385 228.044 75.5385C231.202 82.8508 238.381 87.2049 246.757 87.4706C255.764 87.7033 263.408 83.4491 266.566 75.9043C266.799 75.4056 267.663 72.9794 267.663 70.7858C267.862 68.5589 266.632 67.728 265.768 67.728ZM228.809 73.4447C228.576 73.4447 228.211 73.5776 227.945 73.4447C225.286 73.3118 222.228 70.8854 221.995 67.9607C221.763 64.8031 223.325 62.3768 226.25 61.7453C226.615 61.6124 226.981 61.6124 227.479 61.6124C229.075 61.7453 231.501 62.942 232.099 66.4649C232.565 69.7887 231.867 72.9461 228.809 73.4447ZM225.784 59.8177C223.956 60.1833 222.394 61.1471 221.397 62.6095C220.799 62.1108 219.702 61.1471 219.569 60.7815C217.974 57.8566 221.264 52.0402 223.591 48.8494C229.175 40.8393 238.049 34.757 242.07 35.8206C242.802 36.0532 244.995 38.6125 244.995 38.6125C244.995 38.6125 240.874 40.9391 237.085 44.0966C231.966 47.8856 228.078 53.6023 225.784 59.8177ZM254.468 72.2149L254.601 72.0821C254.601 71.9492 254.468 71.9492 254.468 71.9492C254.468 71.9492 250.213 72.5474 246.192 71.0849C246.69 69.6225 247.787 70.1209 249.582 70.3536C252.739 70.5863 255.664 70.1209 257.725 69.4896C259.553 68.9909 261.979 67.8942 263.807 66.4649C264.406 67.7945 264.672 69.3898 264.672 69.3898C264.672 69.3898 265.17 69.2569 265.536 69.5227C265.901 69.7554 266.134 70.254 266.034 71.4838C265.669 73.9101 264.572 75.7381 263.01 77.5661C262.046 78.663 260.683 79.6268 259.254 80.3579C258.523 80.7237 257.659 81.0893 256.828 81.3219C250.247 83.3826 243.699 81.1888 241.638 76.2034C241.505 75.8379 241.273 75.4721 241.273 74.9736C240.409 71.6832 241.14 67.7945 243.599 65.3682C243.732 65.2353 243.832 65.0027 243.832 64.77C243.832 64.5373 243.699 64.4042 243.599 64.2713C242.735 63.0415 239.844 60.9808 240.442 56.9592C240.808 54.0344 243.367 52.1066 245.66 52.2063H246.258C247.222 52.2063 248.219 52.439 248.917 52.439C250.247 52.439 251.576 52.3061 253.039 51.1095C253.537 50.7439 253.903 50.3783 254.634 50.2454C254.767 50.2454 254.867 50.1124 255.232 50.2454C255.598 50.2454 255.963 50.3783 256.196 50.611C257.426 51.4751 257.525 53.2699 257.659 54.7323C257.659 55.5965 257.791 57.5244 257.791 58.0228C257.924 59.2526 258.157 59.4853 258.888 59.7179C259.254 59.8508 259.619 59.9506 260.118 60.0835C261.714 60.5819 262.677 60.9477 263.276 61.546C263.641 61.9115 263.774 62.2771 263.874 62.6429C264.106 63.9722 262.777 65.6673 259.487 67.2627C255.831 68.9578 251.576 69.3234 248.552 68.9578L247.455 68.8247C245.028 68.4591 243.699 71.6167 245.128 73.6774C246.092 75.0067 248.651 76.0039 251.078 76.0039C256.927 76.0039 261.414 73.5776 263.01 71.384L263.143 71.1514C263.276 71.0185 263.143 70.9187 263.01 71.0185C261.68 71.9823 255.598 75.6383 249.15 74.5416C249.15 74.5416 248.419 74.4085 247.687 74.1758C247.089 73.9432 245.992 73.4447 245.726 72.2149C251.177 73.8103 254.468 72.2149 254.468 72.2149ZM236.221 48.8827C238.182 46.5561 240.708 44.4954 242.901 43.3986C243.034 43.3986 243.034 43.3986 243.034 43.5315C242.901 43.8972 242.536 44.4954 242.436 44.994C242.436 45.1269 242.569 45.1269 242.569 45.1269C243.898 44.163 246.325 43.1659 248.419 43.0662C248.552 43.0662 248.552 43.1992 248.552 43.1992C248.186 43.4318 247.953 43.7974 247.588 44.163C247.588 44.163 247.588 44.296 247.721 44.296C249.183 44.296 251.244 44.7945 252.573 45.6255C252.706 45.6255 252.573 45.8581 252.44 45.8581C250.38 45.3596 247.089 44.994 243.566 45.8581C240.409 46.5893 238.082 47.8191 236.387 49.0156C236.221 48.9824 236.121 48.9824 236.221 48.8827Z" fill="#A0AEC0"/>
<rect x="366" y="0.659912" width="119" height="120" rx="6" fill="#1A202C"/>
<rect x="366.5" y="1.15991" width="118" height="119" rx="5.5" stroke="white" stroke-opacity="0.16"/>
<path fill-rule="evenodd" clip-rule="evenodd" d="M408.931 43.5919C410.571 44.9243 411.186 44.8227 414.266 44.6172L443.299 42.8739C443.915 42.8739 443.403 42.2596 443.197 42.1575L438.375 38.6718C437.452 37.9545 436.221 37.133 433.862 37.3385L405.749 39.3889C404.724 39.4906 404.519 40.0033 404.927 40.4141L408.931 43.5919ZM410.674 50.358V80.9056C410.674 82.5473 411.495 83.1615 413.341 83.06L445.248 81.2136C447.096 81.1122 447.301 79.983 447.301 78.6492V48.3067C447.301 46.9752 446.789 46.2571 445.658 46.3596L412.315 48.3067C411.085 48.4101 410.674 49.0256 410.674 50.358ZM442.173 51.9966C442.377 52.9202 442.173 53.8428 441.248 53.9466L439.71 54.253V76.8052C438.375 77.5226 437.145 77.9328 436.119 77.9328C434.477 77.9328 434.065 77.4198 432.835 75.883L422.779 60.0964V75.3703L425.962 76.0884C425.962 76.0884 425.962 77.9328 423.394 77.9328L416.317 78.3432C416.111 77.9328 416.317 76.9086 417.035 76.7033L418.882 76.1914V55.9962L416.317 55.7907C416.112 54.8672 416.624 53.5356 418.061 53.4323L425.654 52.9205L436.119 68.9127V54.7655L433.451 54.4593C433.246 53.3303 434.065 52.5105 435.092 52.4089L442.173 51.9966ZM403.389 36.6213L432.63 34.4679C436.221 34.1599 437.145 34.3662 439.402 36.0057L448.736 42.5663C450.276 43.6945 450.79 44.0016 450.79 45.2315V81.2136C450.79 83.4687 449.968 84.8023 447.096 85.0066L413.138 87.0572C410.982 87.16 409.956 86.8528 408.827 85.4166L401.953 76.4981C400.721 74.8564 400.209 73.6282 400.209 72.1914V40.2079C400.209 38.3638 401.031 36.8255 403.389 36.6213Z" fill="#A0AEC0"/>
<rect x="549" y="0.659912" width="119" height="120" rx="6" fill="#1A202C"/>
<rect x="549.5" y="1.15991" width="118" height="119" rx="5.5" stroke="white" stroke-opacity="0.16"/>
<path d="M608.5 87.1599C623.136 87.1599 635 75.2955 635 60.6599C635 46.0244 623.136 34.1599 608.5 34.1599C593.864 34.1599 582 46.0244 582 60.6599C582 75.2955 593.864 87.1599 608.5 87.1599Z" fill="#4353FF"/>
<path d="M616.284 57.5135L613.883 65.0826C613.883 64.503 612.226 51.9485 612.226 51.9485C608.417 51.9485 606.396 54.6482 605.336 57.5135L602.405 65.0992C602.405 64.5526 601.991 57.5797 601.991 57.5797C601.849 56.0703 601.159 54.6651 600.051 53.6303C598.943 52.5955 597.494 52.003 595.979 51.965L599.092 70.9789C603.067 70.9789 605.22 68.2792 606.33 65.4139L608.814 58.9545C608.814 59.2195 610.471 70.9789 610.471 70.9789C612.096 70.9768 613.679 70.4572 614.989 69.4951C616.299 68.5333 617.269 67.1792 617.758 65.6292L623.389 51.9485C619.414 51.9485 617.328 54.6482 616.268 57.5135H616.284Z" fill="white"/>
<rect x="732" y="0.659912" width="119" height="120" rx="6" fill="#1A202C"/>
<rect x="732.5" y="1.15991" width="118" height="119" rx="5.5" stroke="white" stroke-opacity="0.16"/>
<path d="M768.752 60.5565C768.752 69.52 773.961 77.2661 781.515 80.9369L770.713 51.3406C769.456 54.1569 768.752 57.2736 768.752 60.5565Z" fill="#A0AEC0"/>
<path d="M806.684 59.4137C806.684 56.6151 805.679 54.6769 804.817 53.1683C803.669 51.303 802.593 49.7233 802.593 47.858C802.593 45.7764 804.172 43.8386 806.396 43.8386C806.496 43.8386 806.591 43.8511 806.689 43.8567C802.66 40.1657 797.293 37.9121 791.397 37.9121C783.486 37.9121 776.526 41.9711 772.477 48.1191C773.008 48.1351 773.509 48.1463 773.934 48.1463C776.302 48.1463 779.969 47.8589 779.969 47.8589C781.19 47.7869 781.334 49.5799 780.114 49.7242C780.114 49.7242 778.887 49.8686 777.522 49.9401L785.769 74.4687L790.725 59.6059L787.196 49.9392C785.977 49.8677 784.822 49.7233 784.822 49.7233C783.601 49.6518 783.744 47.786 784.965 47.858C784.965 47.858 788.704 48.1454 790.93 48.1454C793.298 48.1454 796.965 47.858 796.965 47.858C798.186 47.786 798.33 49.579 797.11 49.7233C797.11 49.7233 795.881 49.8677 794.518 49.9392L802.702 74.2822L804.96 66.7342C805.939 63.602 806.684 61.3523 806.684 59.4137Z" fill="#A0AEC0"/>
<path d="M791.794 62.5376L785 82.2806C787.029 82.8769 789.174 83.2031 791.397 83.2031C794.034 83.2031 796.563 82.7472 798.917 81.9195C798.856 81.8225 798.801 81.7195 798.756 81.6075L791.794 62.5376Z" fill="#A0AEC0"/>
<path d="M811.268 49.6919C811.365 50.4132 811.42 51.1875 811.42 52.0204C811.42 54.3184 810.991 56.9016 809.699 60.1316L802.781 80.1307C809.514 76.2048 814.042 68.9111 814.042 60.5569C814.042 56.6198 813.037 52.9176 811.268 49.6919Z" fill="#A0AEC0"/>
<path d="M791.397 34.1599C776.842 34.1599 765 46.0013 765 60.5565C765 75.1134 776.842 86.9544 791.397 86.9544C805.952 86.9544 817.796 75.1134 817.796 60.5565C817.796 46.0013 805.952 34.1599 791.397 34.1599ZM791.397 85.7444C777.51 85.7444 766.21 74.4451 766.21 60.5565C766.21 46.6688 777.509 35.3703 791.397 35.3703C805.285 35.3703 816.583 46.6688 816.583 60.5565C816.583 74.4451 805.285 85.7444 791.397 85.7444Z" fill="#A0AEC0"/>
<rect x="915" y="0.659912" width="119" height="120" rx="6" fill="#1A202C"/>
<rect x="915.5" y="1.15991" width="118" height="119" rx="5.5" stroke="white" stroke-opacity="0.16"/>
<path d="M988.447 46.7126H960.553V74.6074H988.447V46.7126Z" fill="white"/>
<path d="M988.447 87.1598L1001 74.6072H988.447V87.1598Z" fill="#EA4335"/>
<path d="M1001 46.7126H988.447V74.6074H1001V46.7126Z" fill="#FBBC04"/>
<path d="M988.447 74.6072H960.553V87.1598H988.447V74.6072Z" fill="#34A853"/>
<path d="M948 74.6072V82.9756C948 85.2874 949.872 87.1598 952.184 87.1598H960.553V74.6072H948Z" fill="#188038"/>
<path d="M1001 46.7125V38.3441C1001 36.0323 999.127 34.1599 996.816 34.1599H988.447V46.7125H1001Z" fill="#1967D2"/>
<path d="M988.447 34.1599H952.184C949.872 34.1599 948 36.0323 948 38.3441V74.6073H960.553V46.7125H988.447V34.1599Z" fill="#4285F4"/>
<path d="M966.274 68.3518C965.231 67.6475 964.509 66.6189 964.115 65.259L966.535 64.2618C966.755 65.0986 967.138 65.7472 967.686 66.2074C968.23 66.6677 968.892 66.8943 969.666 66.8943C970.458 66.8943 971.138 66.6537 971.706 66.1726C972.274 65.6914 972.56 65.0777 972.56 64.335C972.56 63.5749 972.26 62.9542 971.661 62.473C971.061 61.9918 970.308 61.7512 969.408 61.7512H968.01V59.3558H969.265C970.039 59.3558 970.691 59.1466 971.221 58.7281C971.751 58.3097 972.016 57.7379 972.016 57.0091C972.016 56.3606 971.779 55.8445 971.305 55.4575C970.831 55.0705 970.231 54.8752 969.502 54.8752C968.791 54.8752 968.226 55.0635 967.808 55.4435C967.39 55.8246 967.075 56.3058 966.894 56.8418L964.499 55.8445C964.816 54.9449 965.398 54.1499 966.253 53.463C967.107 52.7761 968.198 52.4309 969.523 52.4309C970.503 52.4309 971.385 52.6192 972.166 52.9993C972.947 53.3793 973.561 53.9058 974.004 54.5753C974.447 55.2483 974.666 56.0014 974.666 56.8383C974.666 57.6926 974.461 58.4143 974.049 59.0071C973.638 59.5999 973.132 60.0531 972.532 60.3704V60.5134C973.307 60.8327 973.98 61.3571 974.478 62.0302C974.984 62.7101 975.238 63.5226 975.238 64.471C975.238 65.4194 974.998 66.2667 974.516 67.0094C974.035 67.7521 973.369 68.3379 972.525 68.7633C971.678 69.1887 970.726 69.4049 969.67 69.4049C968.446 69.4083 967.316 69.0562 966.274 68.3518ZM981.138 56.3431L978.481 58.2644L977.153 56.249L981.919 52.811H983.746V69.0283H981.138V56.3431Z" fill="#4285F4"/>
<rect x="1098" y="0.659912" width="119" height="120" rx="6" fill="#1A202C"/>
<rect x="1098.5" y="1.15991" width="118" height="119" rx="5.5" stroke="white" stroke-opacity="0.16"/>
<path d="M1178.47 47.2092C1175.96 47.2092 1173.84 48.9407 1173.25 51.2717H1165.72C1162.77 51.2717 1160.37 53.6722 1160.37 56.6232C1160.37 58.0974 1159.17 59.2989 1157.7 59.2989H1156.63C1156.03 56.9679 1153.92 55.2364 1151.4 55.2364C1148.89 55.2364 1146.77 56.9679 1146.17 59.2989H1141.88C1141.28 56.9679 1139.17 55.2364 1136.65 55.2364C1133.68 55.2364 1131.25 57.6574 1131.25 60.6367C1131.25 63.6135 1133.67 66.0371 1136.65 66.0371C1139.17 66.0371 1141.28 64.3056 1141.88 61.9746H1146.18C1146.78 64.3056 1148.89 66.0371 1151.4 66.0371C1153.9 66.0371 1156 64.3313 1156.62 62.0235H1157.7C1159.17 62.0235 1160.38 63.2225 1160.38 64.6992C1160.38 67.6503 1162.78 70.0507 1165.73 70.0507H1167.48C1168.08 72.3817 1170.19 74.1132 1172.71 74.1132C1175.68 74.1132 1178.11 71.6921 1178.11 68.7128C1178.11 65.7361 1175.68 63.3125 1172.71 63.3125C1170.19 63.3125 1168.08 65.044 1167.48 67.3749H1165.73C1164.25 67.3749 1163.05 66.176 1163.05 64.6992C1163.05 63.0887 1162.33 61.6427 1161.2 60.6625C1162.33 59.6797 1163.05 58.2363 1163.05 56.6258C1163.05 55.1515 1164.25 53.95 1165.73 53.95H1173.25C1173.85 56.281 1175.96 58.0125 1178.47 58.0125C1181.45 58.0125 1183.87 55.5915 1183.87 52.6121C1183.87 49.6328 1181.45 47.2092 1178.47 47.2092ZM1136.66 63.3588C1135.15 63.3588 1133.93 62.1367 1133.93 60.6342C1133.93 59.1317 1135.15 57.9096 1136.66 57.9096C1138.16 57.9096 1139.38 59.1317 1139.38 60.6342C1139.38 62.1367 1138.16 63.3588 1136.66 63.3588ZM1151.4 63.3588C1149.9 63.3588 1148.68 62.1367 1148.68 60.6342C1148.68 59.1317 1149.9 57.9096 1151.4 57.9096C1152.91 57.9096 1154.13 59.1317 1154.13 60.6342C1154.13 62.1367 1152.91 63.3588 1151.4 63.3588ZM1172.7 65.9857C1174.21 65.9857 1175.43 67.2077 1175.43 68.7102C1175.43 70.2128 1174.21 71.4349 1172.7 71.4349C1171.2 71.4349 1169.98 70.2128 1169.98 68.7102C1169.98 67.2077 1171.2 65.9857 1172.7 65.9857ZM1178.47 55.3342C1176.97 55.3342 1175.75 54.1121 1175.75 52.6096C1175.75 51.1071 1176.97 49.885 1178.47 49.885C1179.97 49.885 1181.2 51.1071 1181.2 52.6096C1181.2 54.1121 1179.97 55.3342 1178.47 55.3342Z" fill="#FF6D5A"/>
<rect x="1281" y="0.659912" width="119" height="120" rx="6" fill="#1A202C"/>
<rect x="1281.5" y="1.15991" width="118" height="119" rx="5.5" stroke="white" stroke-opacity="0.16"/>
<path d="M1318.01 77.5678L1320.34 81.605C1320.83 82.455 1321.53 83.1228 1322.35 83.6085L1330.7 69.1594H1314C1314 70.1004 1314.24 71.0414 1314.73 71.8914L1318.01 77.5678Z" fill="#0066DA"/>
<path d="M1340.5 52.1605L1332.15 37.7114C1331.33 38.1971 1330.63 38.8649 1330.15 39.7149L1314.73 66.4273C1314.25 67.259 1314 68.2007 1314 69.1593H1330.7L1340.5 52.1605Z" fill="#00AC47"/>
<path d="M1358.65 83.6085C1359.47 83.1228 1360.17 82.455 1360.66 81.605L1361.63 79.9355L1366.27 71.8914C1366.76 71.0414 1367 70.1004 1367 69.1594H1350.3L1353.86 76.1411L1358.65 83.6085Z" fill="#EA4335"/>
<path d="M1340.5 52.1605L1348.85 37.7114C1348.03 37.2258 1347.09 36.9829 1346.12 36.9829H1334.88C1333.91 36.9829 1332.97 37.2561 1332.15 37.7114L1340.5 52.1605Z" fill="#00832D"/>
<path d="M1350.3 69.1594H1330.7L1322.35 83.6085C1323.17 84.0941 1324.11 84.337 1325.08 84.337H1355.92C1356.89 84.337 1357.83 84.0638 1358.65 83.6085L1350.3 69.1594Z" fill="#2684FC"/>
<path d="M1358.56 53.0711L1350.85 39.7149C1350.37 38.8649 1349.67 38.1971 1348.85 37.7114L1340.5 52.1605L1350.3 69.1593H1366.97C1366.97 68.2183 1366.73 67.2773 1366.24 66.4273L1358.56 53.0711Z" fill="#FFBA00"/>
<rect x="80" y="168.66" width="120" height="120" rx="6" fill="#1A202C"/>
<rect x="80.5" y="169.16" width="119" height="119" rx="5.5" stroke="white" stroke-opacity="0.16"/>
<path fill-rule="evenodd" clip-rule="evenodd" d="M132.815 201.66C129.836 201.662 127.426 204.08 127.428 207.059C127.426 210.038 129.838 212.456 132.817 212.458H138.206V207.061C138.209 204.082 135.796 201.664 132.815 201.66C132.817 201.66 132.817 201.66 132.815 201.66ZM132.815 216.06H118.448C115.469 216.062 113.056 218.48 113.059 221.459C113.054 224.438 115.467 226.855 118.446 226.86H132.815C135.794 226.858 138.206 224.44 138.204 221.461C138.206 218.48 135.794 216.062 132.815 216.06Z" fill="#36C5F0"/>
<path fill-rule="evenodd" clip-rule="evenodd" d="M166.942 221.459C166.945 218.48 164.532 216.062 161.553 216.06C158.575 216.062 156.162 218.48 156.164 221.459V226.86H161.553C164.532 226.858 166.945 224.44 166.942 221.459ZM152.573 221.459V207.059C152.575 204.082 150.165 201.664 147.186 201.66C144.207 201.662 141.795 204.08 141.797 207.059V221.459C141.792 224.438 144.205 226.855 147.184 226.86C150.163 226.858 152.575 224.44 152.573 221.459Z" fill="#2EB67D"/>
<path fill-rule="evenodd" clip-rule="evenodd" d="M147.184 255.66C150.163 255.658 152.576 253.24 152.573 250.261C152.576 247.282 150.163 244.864 147.184 244.862H141.795V250.261C141.793 253.238 144.206 255.655 147.184 255.66ZM147.184 241.258H161.553C164.532 241.255 166.945 238.838 166.943 235.859C166.947 232.88 164.534 230.462 161.556 230.458H147.186C144.208 230.46 141.795 232.877 141.797 235.856C141.795 238.838 144.206 241.255 147.184 241.258Z" fill="#ECB22E"/>
<path fill-rule="evenodd" clip-rule="evenodd" d="M113.059 235.859C113.056 238.838 115.469 241.256 118.448 241.258C121.426 241.256 123.839 238.838 123.837 235.859V230.46H118.448C115.469 230.462 113.056 232.88 113.059 235.859ZM127.428 235.859V250.259C127.423 253.238 129.836 255.656 132.815 255.66C135.794 255.658 138.206 253.24 138.204 250.261V235.863C138.209 232.884 135.796 230.467 132.817 230.462C129.836 230.462 127.426 232.88 127.428 235.859Z" fill="#E01E5A"/>
<rect x="264" y="168.66" width="120" height="120" rx="6" fill="#1A202C"/>
<rect x="264.5" y="169.16" width="119" height="119" rx="5.5" stroke="white" stroke-opacity="0.16"/>
<path d="M341.889 212.058C341.851 211.785 341.613 211.634 341.415 211.618C341.219 211.601 337.375 211.543 337.375 211.543C337.375 211.543 334.16 208.42 333.842 208.103C333.525 207.785 332.904 207.881 332.663 207.953C332.66 207.955 332.059 208.14 331.048 208.453C330.879 207.905 330.63 207.231 330.275 206.554C329.13 204.37 327.454 203.214 325.429 203.211C325.426 203.211 325.424 203.211 325.421 203.211C325.28 203.211 325.141 203.225 325 203.237C324.94 203.165 324.88 203.095 324.817 203.026C323.935 202.082 322.804 201.622 321.448 201.662C318.832 201.737 316.227 203.626 314.115 206.982C312.628 209.343 311.497 212.31 311.177 214.606C308.173 215.537 306.073 216.187 306.026 216.202C304.51 216.678 304.462 216.725 304.264 218.154C304.117 219.234 300.15 249.91 300.15 249.91L333.396 255.66L347.805 252.078C347.805 252.078 341.926 212.331 341.889 212.058ZM329.384 208.969C328.618 209.206 327.748 209.475 326.804 209.767C326.784 208.443 326.627 206.6 326.01 205.008C327.995 205.384 328.972 207.629 329.384 208.969ZM325.064 210.307C323.322 210.846 321.421 211.435 319.514 212.025C320.05 209.971 321.067 207.926 322.317 206.585C322.781 206.086 323.432 205.531 324.202 205.213C324.925 206.723 325.082 208.861 325.064 210.307ZM321.5 203.403C322.115 203.39 322.631 203.525 323.073 203.815C322.366 204.182 321.683 204.71 321.042 205.397C319.381 207.18 318.107 209.947 317.599 212.617C316.016 213.107 314.467 213.588 313.04 214.028C313.941 209.826 317.463 203.52 321.5 203.403Z" fill="#95BF47"/>
<path d="M341.416 211.619C341.22 211.603 337.376 211.544 337.376 211.544C337.376 211.544 334.161 208.422 333.843 208.104C333.725 207.986 333.564 207.925 333.396 207.899L333.398 255.658L347.806 252.078C347.806 252.078 341.927 212.332 341.89 212.059C341.852 211.787 341.612 211.636 341.416 211.619Z" fill="#5E8E3E"/>
<path d="M325.409 219.027L323.736 225.288C323.736 225.288 321.869 224.439 319.656 224.578C316.411 224.783 316.377 226.83 316.41 227.344C316.586 230.144 323.953 230.755 324.366 237.314C324.691 242.473 321.629 246.003 317.217 246.281C311.921 246.616 309.006 243.492 309.006 243.492L310.128 238.719C310.128 238.719 313.063 240.933 315.412 240.785C316.946 240.687 317.494 239.44 317.439 238.557C317.208 234.905 311.21 235.12 310.831 229.119C310.511 224.069 313.828 218.951 321.147 218.49C323.966 218.308 325.409 219.027 325.409 219.027Z" fill="white"/>
<rect x="448" y="168.66" width="120" height="120" rx="6" fill="#1A202C"/>
<rect x="448.5" y="169.16" width="119" height="119" rx="5.5" stroke="white" stroke-opacity="0.16"/>
<path d="M505.106 206.648L484.979 214.977C483.86 215.44 483.872 217.03 484.998 217.477L505.208 225.492C506.984 226.197 508.962 226.197 510.737 225.492L530.948 217.477C532.074 217.03 532.086 215.441 530.967 214.977L510.841 206.648C509.004 205.888 506.942 205.888 505.106 206.648" fill="#FCB400"/>
<path d="M509.766 229.868V249.892C509.766 250.844 510.726 251.496 511.611 251.146L534.132 242.403C534.383 242.304 534.598 242.131 534.75 241.908C534.902 241.684 534.983 241.42 534.983 241.15V221.126C534.983 220.174 534.023 219.522 533.138 219.873L510.617 228.615C510.366 228.715 510.15 228.887 509.999 229.111C509.847 229.335 509.766 229.598 509.766 229.868Z" fill="#18BFFF"/>
<path d="M504.507 230.901L497.823 234.128L497.145 234.457L483.036 241.217C482.142 241.649 481 240.997 481 240.003V221.21C481 220.85 481.184 220.54 481.431 220.307C481.533 220.206 481.648 220.119 481.773 220.05C482.11 219.848 482.591 219.794 483 219.956L504.395 228.434C505.482 228.865 505.568 230.389 504.507 230.901Z" fill="#F82B60"/>
<path d="M504.507 230.901L497.823 234.128L481.432 220.306C481.533 220.205 481.648 220.119 481.773 220.05C482.11 219.848 482.591 219.794 483 219.956L504.395 228.434C505.482 228.865 505.568 230.389 504.507 230.901Z" fill="black" fill-opacity="0.25"/>
<rect x="632" y="168.66" width="120" height="120" rx="6" fill="#1A202C"/>
<rect x="632.5" y="169.16" width="119" height="119" rx="5.5" stroke="white" stroke-opacity="0.16"/>
<mask id="mask0_1_455" style="mask-type:alpha" maskUnits="userSpaceOnUse" x="672" y="201" width="40" height="55">
<path d="M696.899 201.746H676.078C674.058 201.746 672.404 203.397 672.404 205.416V251.904C672.404 253.922 674.058 255.574 676.078 255.574H707.921C709.942 255.574 711.595 253.922 711.595 251.904V216.426L696.899 201.746Z" fill="white"/>
</mask>
<g mask="url(#mask0_1_455)">
<path d="M696.899 201.746H676.078C674.058 201.746 672.404 203.397 672.404 205.416V251.904C672.404 253.922 674.058 255.574 676.078 255.574H707.921C709.942 255.574 711.595 253.922 711.595 251.904V216.426L703.022 210.309L696.899 201.746Z" fill="#0F9D58"/>
</g>
<mask id="mask1_1_455" style="mask-type:alpha" maskUnits="userSpaceOnUse" x="672" y="201" width="40" height="55">
<path d="M696.899 201.746H676.078C674.058 201.746 672.404 203.397 672.404 205.416V251.904C672.404 253.922 674.058 255.574 676.078 255.574H707.921C709.942 255.574 711.595 253.922 711.595 251.904V216.426L696.899 201.746Z" fill="white"/>
</mask>
<g mask="url(#mask1_1_455)">
<path d="M682.201 228.048V245.787H701.797V228.048H682.201ZM690.774 243.34H684.651V240.282H690.774V243.34ZM690.774 238.447H684.651V235.388H690.774V238.447ZM690.774 233.553H684.651V230.495H690.774V233.553ZM699.347 243.34H693.224V240.282H699.347V243.34ZM699.347 238.447H693.224V235.388H699.347V238.447ZM699.347 233.553H693.224V230.495H699.347V233.553Z" fill="#F1F1F1"/>
</g>
<mask id="mask2_1_455" style="mask-type:alpha" maskUnits="userSpaceOnUse" x="672" y="201" width="40" height="55">
<path d="M696.899 201.746H676.078C674.058 201.746 672.404 203.397 672.404 205.416V251.904C672.404 253.922 674.058 255.574 676.078 255.574H707.921C709.942 255.574 711.595 253.922 711.595 251.904V216.426L696.899 201.746Z" fill="white"/>
</mask>
<g mask="url(#mask2_1_455)">
<path d="M697.973 215.353L711.595 228.956V216.426L697.973 215.353Z" fill="url(#paint1_linear_1_455)"/>
</g>
<mask id="mask3_1_455" style="mask-type:alpha" maskUnits="userSpaceOnUse" x="672" y="201" width="40" height="55">
<path d="M696.899 201.746H676.078C674.058 201.746 672.404 203.397 672.404 205.416V251.904C672.404 253.922 674.058 255.574 676.078 255.574H707.921C709.942 255.574 711.595 253.922 711.595 251.904V216.426L696.899 201.746Z" fill="white"/>
</mask>
<g mask="url(#mask3_1_455)">
<path d="M696.898 201.746V212.756C696.898 214.784 698.543 216.426 700.573 216.426H711.595L696.898 201.746Z" fill="#87CEAC"/>
</g>
<mask id="mask4_1_455" style="mask-type:alpha" maskUnits="userSpaceOnUse" x="672" y="201" width="40" height="55">
<path d="M696.899 201.746H676.078C674.058 201.746 672.404 203.397 672.404 205.416V251.904C672.404 253.922 674.058 255.574 676.078 255.574H707.921C709.942 255.574 711.595 253.922 711.595 251.904V216.426L696.899 201.746Z" fill="white"/>
</mask>
<g mask="url(#mask4_1_455)">
<path d="M676.078 201.746C674.058 201.746 672.404 203.397 672.404 205.416V205.722C672.404 203.703 674.058 202.051 676.078 202.051H696.899V201.746H676.078Z" fill="white" fill-opacity="0.2"/>
</g>
<mask id="mask5_1_455" style="mask-type:alpha" maskUnits="userSpaceOnUse" x="672" y="201" width="40" height="55">
<path d="M696.899 201.746H676.078C674.058 201.746 672.404 203.397 672.404 205.416V251.904C672.404 253.922 674.058 255.574 676.078 255.574H707.921C709.942 255.574 711.595 253.922 711.595 251.904V216.426L696.899 201.746Z" fill="white"/>
</mask>
<g mask="url(#mask5_1_455)">
<path d="M707.921 255.268H676.078C674.058 255.268 672.404 253.617 672.404 251.598V251.904C672.404 253.923 674.058 255.574 676.078 255.574H707.921C709.942 255.574 711.595 253.923 711.595 251.904V251.598C711.595 253.617 709.942 255.268 707.921 255.268Z" fill="#263238" fill-opacity="0.2"/>
</g>
<mask id="mask6_1_455" style="mask-type:alpha" maskUnits="userSpaceOnUse" x="672" y="201" width="40" height="55">
<path d="M696.899 201.746H676.078C674.058 201.746 672.404 203.397 672.404 205.416V251.904C672.404 253.922 674.058 255.574 676.078 255.574H707.921C709.942 255.574 711.595 253.922 711.595 251.904V216.426L696.899 201.746Z" fill="white"/>
</mask>
<g mask="url(#mask6_1_455)">
<path d="M700.573 216.426C698.543 216.426 696.898 214.784 696.898 212.756V213.062C696.898 215.089 698.543 216.732 700.573 216.732H711.595V216.426H700.573Z" fill="#263238" fill-opacity="0.1"/>
</g>
<path d="M696.899 201.746H676.078C674.058 201.746 672.404 203.397 672.404 205.416V251.904C672.404 253.922 674.058 255.574 676.078 255.574H707.921C709.942 255.574 711.595 253.922 711.595 251.904V216.426L696.899 201.746Z" fill="url(#paint2_radial_1_455)"/>
<rect x="816" y="168.66" width="120" height="120" rx="6" fill="#1A202C"/>
<rect x="816.5" y="169.16" width="119" height="119" rx="5.5" stroke="white" stroke-opacity="0.16"/>
<path d="M849.049 235.742L854.647 227.069H849.708C849.663 226.797 849.644 226.522 849.654 226.246C849.645 225.971 849.663 225.694 849.708 225.423H857.666L857.771 225.697L852.118 234.37H857.393C857.439 234.642 857.457 234.918 857.448 235.193C857.459 235.451 857.44 235.708 857.393 235.962H849.104L849.049 235.742ZM865.131 229.046C865.162 228.735 865.123 228.422 865.019 228.127C864.914 227.833 864.747 227.566 864.527 227.344C863.996 226.98 863.358 226.805 862.716 226.85C862.257 226.857 861.798 226.894 861.344 226.96C860.934 227.019 860.531 227.111 860.136 227.234C859.856 226.733 859.723 226.162 859.752 225.588C860.251 225.42 860.766 225.309 861.289 225.258C861.833 225.167 862.385 225.13 862.936 225.148C864.057 225.078 865.165 225.409 866.065 226.081C866.778 226.686 867.162 227.728 867.162 229.1V235.741L865.405 236.07C864.716 236.18 864.018 236.235 863.32 236.235C862.712 236.24 862.111 236.184 861.509 236.07C861.013 235.971 860.544 235.765 860.136 235.466C859.759 235.199 859.457 234.84 859.258 234.424C859.027 233.945 858.914 233.418 858.928 232.887C858.905 232.348 859.038 231.814 859.312 231.35C859.534 230.9 859.876 230.52 860.3 230.252C860.743 229.968 861.223 229.746 861.727 229.594C862.28 229.436 862.854 229.362 863.429 229.374C863.795 229.36 864.162 229.379 864.526 229.429C864.8 229.429 865.02 229.483 865.24 229.483V229.044L865.131 229.046ZM865.131 231.022C864.872 231.009 864.615 230.972 864.363 230.917C864.033 230.917 863.758 230.862 863.539 230.862C862.846 230.821 862.156 230.993 861.563 231.356C861.347 231.523 861.173 231.74 861.059 231.989C860.944 232.237 860.891 232.51 860.905 232.783C860.874 233.086 860.929 233.391 861.066 233.663C861.202 233.935 861.412 234.163 861.673 234.32C861.908 234.453 862.172 234.528 862.441 234.54C862.695 234.583 862.953 234.602 863.21 234.595C863.54 234.604 863.871 234.585 864.198 234.54L865.076 234.375V231.027L865.131 231.022ZM869.412 225.423C869.577 225.423 869.687 225.368 869.851 225.368H870.729C870.893 225.368 871.003 225.423 871.168 225.423C871.198 225.512 871.216 225.604 871.222 225.697C871.222 225.862 871.277 225.972 871.277 226.136C871.277 226.301 871.332 226.466 871.332 226.63C871.33 226.725 871.349 226.818 871.386 226.905L871.88 226.246C872.094 226.033 872.334 225.849 872.594 225.697C873.233 225.344 873.95 225.156 874.68 225.149C875.258 225.141 875.843 225.254 876.381 225.478C876.911 225.691 877.38 226.03 877.748 226.466C878.148 226.951 878.446 227.511 878.626 228.113C878.858 228.878 878.969 229.674 878.956 230.473C879.043 232.039 878.511 233.577 877.474 234.754C876.486 235.797 875.109 236.291 873.303 236.291C872.991 236.3 872.679 236.282 872.37 236.237C872.04 236.182 871.766 236.127 871.547 236.072V240.957C871.382 240.957 871.217 241.012 870.998 241.012H870.01C869.845 241.012 869.68 240.957 869.516 240.957V225.423H869.412ZM871.443 234.315C871.71 234.414 871.985 234.488 872.266 234.535C872.629 234.585 872.997 234.603 873.363 234.59C873.836 234.602 874.296 234.527 874.73 234.37C875.136 234.231 875.496 233.984 875.773 233.656C876.086 233.282 876.328 232.855 876.486 232.394C876.675 231.809 876.767 231.197 876.761 230.582C876.795 229.666 876.587 228.758 876.157 227.948C875.73 227.28 874.971 226.897 874.181 226.96C873.844 226.961 873.511 227.016 873.192 227.124C872.88 227.242 872.598 227.43 872.369 227.673C872.106 227.94 871.901 228.257 871.765 228.606C871.599 229.044 871.525 229.51 871.546 229.973V234.309L871.443 234.315ZM881.433 227.009H880.066C880.017 226.888 879.998 226.756 880.011 226.626V225.748C880.011 225.583 880.066 225.473 880.066 225.364H883.414V236.012C883.249 236.012 883.084 236.067 882.92 236.067H881.932C881.767 236.067 881.602 236.012 881.438 236.012L881.433 227.009ZM887.854 231.235C887.909 232.388 888.184 233.266 888.732 233.76C889.433 234.356 890.34 234.652 891.257 234.583C892.212 234.589 893.161 234.422 894.057 234.089C894.189 234.329 894.282 234.588 894.331 234.858C894.394 235.147 894.431 235.44 894.441 235.736C893.969 235.947 893.471 236.094 892.96 236.174C892.363 236.289 891.751 236.344 891.148 236.339C890.308 236.372 889.469 236.242 888.678 235.955C888.043 235.658 887.467 235.249 886.977 234.748C886.521 234.243 886.183 233.643 885.989 232.991C885.764 232.281 885.653 231.541 885.659 230.796C885.662 230.056 885.754 229.324 885.933 228.6C886.122 227.958 886.439 227.36 886.866 226.844C887.303 226.353 887.823 225.95 888.403 225.636C889.122 225.294 889.912 225.124 890.709 225.142C891.33 225.115 891.949 225.23 892.519 225.477C893.09 225.724 893.596 226.098 894.001 226.569C894.392 227.011 894.674 227.537 894.825 228.106C895.031 228.744 895.124 229.412 895.099 230.083V230.687C895.099 230.907 895.044 231.071 895.044 231.236L887.854 231.235ZM893.124 229.698C893.127 229.326 893.071 228.956 892.959 228.601C892.846 228.275 892.699 227.962 892.52 227.668C892.318 227.392 892.055 227.167 891.752 227.009C891.41 226.847 891.033 226.772 890.654 226.79C890.298 226.772 889.941 226.831 889.61 226.964C889.278 227.096 888.979 227.299 888.733 227.558C888.247 228.171 887.96 228.918 887.91 229.699L893.124 229.698ZM897.405 225.418C897.569 225.418 897.679 225.363 897.844 225.363H898.721C898.886 225.363 898.996 225.418 899.16 225.418C899.231 225.686 899.268 225.963 899.27 226.241C899.315 226.531 899.333 226.825 899.325 227.119C899.605 226.628 900.001 226.214 900.478 225.911C901.018 225.569 901.649 225.397 902.289 225.417H902.618C902.714 225.403 902.81 225.422 902.893 225.472C902.893 225.577 902.947 225.746 902.947 225.856V226.294C902.956 226.461 902.938 226.628 902.893 226.789C902.893 226.953 902.838 227.118 902.838 227.283C902.733 227.283 902.618 227.228 902.509 227.228H902.234C901.88 227.225 901.527 227.28 901.191 227.392C900.842 227.5 900.522 227.688 900.258 227.941C899.953 228.248 899.727 228.625 899.6 229.039C899.428 229.608 899.354 230.202 899.38 230.795V236.071C899.216 236.071 899.051 236.126 898.886 236.126H897.898C897.733 236.126 897.514 236.071 897.349 236.071V225.423L897.405 225.418ZM885.384 219.166H883.358L884.785 217.739C884.68 217.575 884.566 217.465 884.456 217.3C884.298 217.186 884.151 217.058 884.017 216.916L882.586 218.342V216.36C882.407 216.315 882.221 216.297 882.037 216.306C881.852 216.294 881.667 216.312 881.488 216.36V218.391L880.006 216.909C879.836 217.007 879.686 217.137 879.567 217.293C879.462 217.458 879.293 217.568 879.183 217.732L880.61 219.159H878.628L878.573 219.708C878.561 219.894 878.579 220.082 878.628 220.262H880.659L879.177 221.744C879.394 222.07 879.673 222.351 880 222.567L881.427 221.14V223.171C881.606 223.217 881.791 223.235 881.975 223.226C882.16 223.238 882.345 223.219 882.524 223.171V221.14L883.951 222.567C884.122 222.47 884.271 222.339 884.39 222.183C884.532 222.049 884.66 221.902 884.774 221.744L883.358 220.318H885.389C885.435 220.139 885.453 219.954 885.444 219.77C885.456 219.566 885.437 219.363 885.389 219.165L885.384 219.166ZM882.859 219.715C882.854 219.957 882.817 220.197 882.749 220.429C882.523 220.518 882.278 220.555 882.035 220.534C881.793 220.529 881.553 220.492 881.321 220.423C881.232 220.197 881.195 219.953 881.216 219.71C881.221 219.468 881.258 219.228 881.326 218.996C881.552 218.906 881.797 218.87 882.04 218.891C882.282 218.896 882.522 218.933 882.754 219.001C882.817 219.234 882.854 219.474 882.864 219.715H882.859Z" fill="#FF4A00"/>
<rect x="1000" y="168.66" width="120" height="120" rx="6" fill="#1A202C"/>
<rect x="1000.5" y="169.16" width="119" height="119" rx="5.5" stroke="white" stroke-opacity="0.16"/>
<mask id="mask7_1_455" style="mask-type:luminance" maskUnits="userSpaceOnUse" x="1033" y="201" width="54" height="55">
<path d="M1086.45 201.66H1033.55V255.66H1086.45V201.66Z" fill="white"/>
</mask>
<g mask="url(#mask7_1_455)">
<path d="M1069.79 236.6C1068.08 238.118 1065.95 240.008 1062.07 240.008H1059.76C1056.95 240.008 1054.4 238.989 1052.58 237.142C1050.8 235.337 1049.81 232.867 1049.81 230.186V227.016C1049.81 224.335 1050.8 221.865 1052.58 220.061C1054.4 218.214 1056.95 217.196 1059.76 217.196H1062.07C1065.95 217.196 1068.08 219.084 1069.79 220.602C1071.57 222.167 1073.1 223.535 1077.19 223.535C1077.81 223.535 1078.44 223.485 1079.05 223.387L1079.04 223.351C1078.79 222.743 1078.5 222.153 1078.18 221.585L1075.45 216.853C1074.21 214.72 1072.44 212.949 1070.31 211.718C1068.18 210.486 1065.76 209.838 1063.29 209.838H1057.83C1055.37 209.838 1052.95 210.486 1050.81 211.718C1048.68 212.949 1046.91 214.72 1045.68 216.853L1042.95 221.585C1041.71 223.718 1041.07 226.138 1041.07 228.601C1041.07 231.064 1041.71 233.484 1042.95 235.617L1045.68 240.349C1046.91 242.482 1048.68 244.253 1050.81 245.485C1052.95 246.716 1055.37 247.364 1057.83 247.364H1063.29C1065.76 247.364 1068.18 246.716 1070.31 245.485C1072.44 244.253 1074.21 242.482 1075.45 240.349L1078.18 235.625C1078.5 235.057 1078.79 234.467 1079.04 233.86L1079.05 233.825C1078.44 233.723 1077.81 233.671 1077.19 233.669C1073.1 233.669 1071.57 235.029 1069.79 236.602" fill="#006BFF"/>
<path d="M1062.07 220.068H1059.76C1055.49 220.068 1052.69 223.116 1052.69 227.016V230.186C1052.69 234.086 1055.49 237.134 1059.76 237.134H1062.07C1068.29 237.134 1067.8 230.795 1077.19 230.795C1078.08 230.794 1078.97 230.875 1079.84 231.039C1080.13 229.426 1080.13 227.776 1079.84 226.163C1078.97 226.326 1078.08 226.408 1077.19 226.407C1067.8 226.407 1068.29 220.068 1062.07 220.068Z" fill="#006BFF"/>
<path d="M1085.23 233.356C1083.64 232.185 1081.79 231.392 1079.84 231.037C1079.84 231.055 1079.84 231.069 1079.84 231.084C1079.67 232.019 1079.41 232.934 1079.06 233.816C1080.67 234.065 1082.2 234.694 1083.52 235.652C1083.52 235.664 1083.51 235.68 1083.5 235.694C1081.81 241.191 1078.19 245.897 1073.32 248.957C1068.45 252.017 1062.64 253.228 1056.95 252.369C1051.26 251.511 1046.07 248.64 1042.32 244.279C1038.56 239.917 1036.5 234.355 1036.5 228.601C1036.5 222.848 1038.56 217.285 1042.32 212.924C1046.07 208.562 1051.26 205.692 1056.95 204.833C1062.64 203.975 1068.45 205.185 1073.32 208.245C1078.19 211.305 1081.81 216.011 1083.5 221.508C1083.5 221.522 1083.51 221.538 1083.52 221.551C1082.2 222.508 1080.67 223.137 1079.06 223.385C1079.41 224.268 1079.67 225.184 1079.84 226.12C1079.84 226.134 1079.84 226.149 1079.84 226.163C1081.79 225.809 1083.64 225.017 1085.23 223.847C1086.77 222.709 1086.47 221.424 1086.24 220.663C1084.34 214.499 1080.29 209.222 1074.83 205.79C1069.37 202.358 1062.86 200.999 1056.48 201.96C1050.1 202.921 1044.28 206.138 1040.07 211.026C1035.87 215.915 1033.55 222.151 1033.55 228.601C1033.55 235.051 1035.87 241.287 1040.07 246.176C1044.28 251.065 1050.1 254.282 1056.48 255.243C1062.86 256.203 1069.37 254.844 1074.83 251.412C1080.29 247.98 1084.34 242.703 1086.24 236.539C1086.47 235.778 1086.77 234.493 1085.23 233.356Z" fill="#006BFF"/>
<path d="M1079.05 223.385C1078.44 223.487 1077.81 223.539 1077.19 223.541C1073.1 223.541 1071.57 222.181 1069.8 220.608C1068.08 219.09 1065.95 217.201 1062.07 217.201H1059.76C1056.95 217.201 1054.4 218.22 1052.58 220.067C1050.8 221.871 1049.81 224.341 1049.81 227.022V230.192C1049.81 232.873 1050.8 235.343 1052.58 237.148C1054.4 238.995 1056.95 240.012 1059.76 240.012H1062.07C1065.95 240.012 1068.08 238.124 1069.8 236.606C1071.57 235.041 1073.1 233.673 1077.19 233.673C1077.81 233.673 1078.44 233.723 1079.05 233.822C1079.4 232.94 1079.67 232.025 1079.83 231.09C1079.83 231.075 1079.83 231.059 1079.83 231.043C1078.96 230.881 1078.07 230.8 1077.18 230.801C1067.79 230.801 1068.28 237.142 1062.07 237.142H1059.75C1055.48 237.142 1052.68 234.092 1052.68 230.192V227.016C1052.68 223.116 1055.48 220.068 1059.75 220.068H1062.07C1068.28 220.068 1067.79 226.406 1077.18 226.406C1078.07 226.407 1078.96 226.326 1079.83 226.163C1079.83 226.149 1079.83 226.135 1079.83 226.119C1079.67 225.184 1079.4 224.268 1079.05 223.385Z" fill="#0AE8F0"/>
<path d="M1079.05 223.385C1078.44 223.487 1077.81 223.539 1077.19 223.541C1073.1 223.541 1071.57 222.181 1069.8 220.608C1068.08 219.09 1065.95 217.201 1062.07 217.201H1059.76C1056.95 217.201 1054.4 218.22 1052.58 220.067C1050.8 221.871 1049.81 224.341 1049.81 227.022V230.192C1049.81 232.873 1050.8 235.343 1052.58 237.148C1054.4 238.995 1056.95 240.012 1059.76 240.012H1062.07C1065.95 240.012 1068.08 238.124 1069.8 236.606C1071.57 235.041 1073.1 233.673 1077.19 233.673C1077.81 233.673 1078.44 233.723 1079.05 233.822C1079.4 232.94 1079.67 232.025 1079.83 231.09C1079.83 231.075 1079.83 231.059 1079.83 231.043C1078.96 230.881 1078.07 230.8 1077.18 230.801C1067.79 230.801 1068.28 237.142 1062.07 237.142H1059.75C1055.48 237.142 1052.68 234.092 1052.68 230.192V227.016C1052.68 223.116 1055.48 220.068 1059.75 220.068H1062.07C1068.28 220.068 1067.79 226.406 1077.18 226.406C1078.07 226.407 1078.96 226.326 1079.83 226.163C1079.83 226.149 1079.83 226.135 1079.83 226.119C1079.67 225.184 1079.4 224.268 1079.05 223.385Z" fill="#0AE8F0"/>
</g>
<rect x="1184" y="168.66" width="120" height="120" rx="6" fill="#1A202C"/>
<rect x="1184.5" y="169.16" width="119" height="119" rx="5.5" stroke="white" stroke-opacity="0.16"/>
<path d="M1239.48 213.821C1241.22 212.008 1243.64 210.884 1246.32 210.884C1249.88 210.884 1252.99 212.869 1254.64 215.817C1256.08 215.175 1257.67 214.817 1259.34 214.817C1265.77 214.817 1270.97 220.07 1270.97 226.549C1270.97 233.028 1265.77 238.281 1259.34 238.281C1258.56 238.281 1257.79 238.202 1257.05 238.052C1255.6 240.651 1252.82 242.407 1249.63 242.407C1248.3 242.407 1247.04 242.099 1245.91 241.551C1244.44 245.025 1240.99 247.462 1236.98 247.462C1232.81 247.462 1229.25 244.819 1227.88 241.113C1227.28 241.239 1226.67 241.305 1226.03 241.305C1221.06 241.305 1217.03 237.233 1217.03 232.208C1217.03 228.84 1218.84 225.9 1221.53 224.327C1220.98 223.052 1220.67 221.645 1220.67 220.166C1220.67 214.387 1225.36 209.702 1231.15 209.702C1234.54 209.702 1237.56 211.318 1239.48 213.821Z" fill="#00A1E0"/>
<path d="M1224.84 229.284C1224.81 229.372 1224.85 229.39 1224.86 229.406C1224.96 229.48 1225.07 229.533 1225.17 229.592C1225.72 229.884 1226.24 229.969 1226.78 229.969C1227.89 229.969 1228.58 229.38 1228.58 228.433V228.415C1228.58 227.538 1227.8 227.22 1227.08 226.991L1226.98 226.96C1226.43 226.782 1225.96 226.628 1225.96 226.267V226.247C1225.96 225.939 1226.24 225.711 1226.66 225.711C1227.14 225.711 1227.71 225.869 1228.07 226.071C1228.07 226.071 1228.18 226.14 1228.22 226.036C1228.24 225.981 1228.42 225.484 1228.44 225.431C1228.46 225.372 1228.43 225.329 1228.39 225.306C1227.97 225.053 1227.4 224.88 1226.8 224.88L1226.69 224.881C1225.68 224.881 1224.97 225.493 1224.97 226.37V226.388C1224.97 227.313 1225.75 227.612 1226.48 227.821L1226.6 227.857C1227.13 228.021 1227.59 228.162 1227.59 228.537V228.555C1227.59 228.898 1227.29 229.153 1226.81 229.153C1226.63 229.153 1226.03 229.149 1225.39 228.743C1225.31 228.697 1225.26 228.664 1225.2 228.628C1225.17 228.608 1225.09 228.574 1225.06 228.678L1224.84 229.284Z" fill="white"/>
<path d="M1241.04 229.284C1241.01 229.372 1241.05 229.39 1241.06 229.406C1241.17 229.48 1241.27 229.533 1241.37 229.592C1241.92 229.884 1242.44 229.969 1242.99 229.969C1244.09 229.969 1244.78 229.38 1244.78 228.433V228.415C1244.78 227.538 1244 227.22 1243.28 226.991L1243.18 226.96C1242.63 226.782 1242.16 226.628 1242.16 226.267V226.247C1242.16 225.939 1242.44 225.711 1242.87 225.711C1243.34 225.711 1243.91 225.869 1244.27 226.071C1244.27 226.071 1244.38 226.14 1244.42 226.036C1244.44 225.981 1244.62 225.484 1244.64 225.431C1244.66 225.372 1244.63 225.329 1244.59 225.306C1244.17 225.053 1243.6 224.88 1243 224.88L1242.89 224.881C1241.88 224.881 1241.17 225.493 1241.17 226.37V226.388C1241.17 227.313 1241.95 227.612 1242.68 227.821L1242.8 227.857C1243.33 228.021 1243.79 228.162 1243.79 228.537V228.555C1243.79 228.898 1243.49 229.153 1243.01 229.153C1242.83 229.153 1242.23 229.149 1241.59 228.743C1241.51 228.697 1241.46 228.666 1241.41 228.628C1241.39 228.615 1241.29 228.579 1241.26 228.678L1241.04 229.284Z" fill="white"/>
<path d="M1252.1 227.427C1252.1 227.963 1252 228.385 1251.8 228.683C1251.61 228.978 1251.32 229.122 1250.9 229.122C1250.49 229.122 1250.2 228.979 1250.01 228.683C1249.82 228.386 1249.72 227.963 1249.72 227.427C1249.72 226.893 1249.82 226.471 1250.01 226.176C1250.2 225.884 1250.49 225.742 1250.9 225.742C1251.32 225.742 1251.61 225.884 1251.8 226.176C1252 226.471 1252.1 226.893 1252.1 227.427ZM1253.02 226.435C1252.93 226.128 1252.79 225.857 1252.6 225.632C1252.42 225.406 1252.18 225.225 1251.89 225.093C1251.61 224.961 1251.28 224.895 1250.9 224.895C1250.53 224.895 1250.2 224.961 1249.91 225.093C1249.63 225.225 1249.39 225.406 1249.2 225.632C1249.02 225.858 1248.88 226.129 1248.78 226.435C1248.69 226.74 1248.65 227.073 1248.65 227.427C1248.65 227.782 1248.69 228.116 1248.78 228.42C1248.88 228.726 1249.02 228.997 1249.2 229.223C1249.39 229.448 1249.63 229.629 1249.91 229.757C1250.2 229.886 1250.53 229.951 1250.9 229.951C1251.28 229.951 1251.61 229.886 1251.89 229.757C1252.18 229.629 1252.42 229.448 1252.6 229.223C1252.79 228.997 1252.93 228.727 1253.02 228.42C1253.11 228.115 1253.16 227.781 1253.16 227.427C1253.16 227.074 1253.11 226.74 1253.02 226.435Z" fill="white"/>
<path d="M1260.61 228.979C1260.58 228.889 1260.49 228.923 1260.49 228.923C1260.36 228.974 1260.21 229.022 1260.06 229.046C1259.91 229.07 1259.74 229.082 1259.55 229.082C1259.11 229.082 1258.75 228.949 1258.5 228.686C1258.24 228.424 1258.1 227.999 1258.1 227.424C1258.1 226.9 1258.23 226.507 1258.46 226.207C1258.68 225.909 1259.02 225.756 1259.48 225.756C1259.86 225.756 1260.15 225.8 1260.46 225.896C1260.46 225.896 1260.53 225.928 1260.56 225.832C1260.64 225.608 1260.7 225.447 1260.79 225.201C1260.82 225.131 1260.76 225.101 1260.73 225.092C1260.61 225.045 1260.33 224.969 1260.12 224.937C1259.92 224.906 1259.68 224.89 1259.42 224.89C1259.04 224.89 1258.69 224.956 1258.39 225.088C1258.1 225.22 1257.85 225.401 1257.65 225.627C1257.45 225.853 1257.3 226.124 1257.2 226.429C1257.1 226.734 1257.05 227.069 1257.05 227.424C1257.05 228.19 1257.26 228.809 1257.67 229.263C1258.07 229.718 1258.69 229.949 1259.49 229.949C1259.96 229.949 1260.45 229.853 1260.8 229.715C1260.8 229.715 1260.86 229.683 1260.83 229.605L1260.61 228.979Z" fill="white"/>
<path d="M1262.23 226.914C1262.27 226.617 1262.35 226.369 1262.48 226.177C1262.67 225.884 1262.96 225.723 1263.37 225.723C1263.78 225.723 1264.05 225.885 1264.25 226.177C1264.38 226.369 1264.43 226.628 1264.46 226.914H1262.23ZM1265.34 226.26C1265.26 225.964 1265.06 225.666 1264.94 225.529C1264.73 225.312 1264.54 225.161 1264.34 225.076C1264.09 224.967 1263.78 224.895 1263.45 224.895C1263.06 224.895 1262.7 224.96 1262.41 225.095C1262.13 225.231 1261.88 225.415 1261.69 225.645C1261.5 225.874 1261.36 226.147 1261.27 226.456C1261.18 226.764 1261.13 227.1 1261.13 227.455C1261.13 227.815 1261.18 228.151 1261.27 228.453C1261.37 228.757 1261.52 229.025 1261.73 229.247C1261.93 229.471 1262.2 229.646 1262.51 229.768C1262.83 229.89 1263.21 229.953 1263.65 229.952C1264.55 229.949 1265.03 229.748 1265.22 229.639C1265.26 229.62 1265.29 229.586 1265.25 229.489L1265.05 228.917C1265.02 228.832 1264.93 228.863 1264.93 228.863C1264.7 228.946 1264.39 229.095 1263.64 229.094C1263.16 229.093 1262.8 228.95 1262.58 228.726C1262.34 228.497 1262.23 228.161 1262.21 227.686L1265.34 227.689C1265.34 227.689 1265.42 227.687 1265.43 227.607C1265.43 227.574 1265.54 226.965 1265.34 226.26Z" fill="white"/>
<path d="M1237.18 226.914C1237.23 226.617 1237.31 226.369 1237.44 226.177C1237.63 225.884 1237.92 225.723 1238.33 225.723C1238.74 225.723 1239.01 225.885 1239.21 226.177C1239.33 226.369 1239.39 226.628 1239.41 226.914H1237.18ZM1240.29 226.26C1240.21 225.964 1240.02 225.666 1239.89 225.529C1239.69 225.312 1239.49 225.161 1239.3 225.076C1239.04 224.967 1238.74 224.895 1238.4 224.895C1238.01 224.895 1237.66 224.96 1237.37 225.095C1237.08 225.231 1236.84 225.415 1236.65 225.645C1236.46 225.874 1236.32 226.147 1236.23 226.456C1236.14 226.764 1236.09 227.1 1236.09 227.455C1236.09 227.815 1236.14 228.151 1236.23 228.453C1236.33 228.757 1236.48 229.025 1236.69 229.247C1236.89 229.471 1237.15 229.646 1237.47 229.768C1237.79 229.89 1238.17 229.953 1238.61 229.952C1239.51 229.949 1239.99 229.748 1240.18 229.639C1240.22 229.62 1240.25 229.586 1240.21 229.489L1240 228.917C1239.97 228.832 1239.89 228.863 1239.89 228.863C1239.66 228.946 1239.34 229.095 1238.6 229.094C1238.12 229.093 1237.76 228.95 1237.53 228.726C1237.3 228.497 1237.19 228.161 1237.17 227.686L1240.29 227.689C1240.29 227.689 1240.38 227.687 1240.39 227.607C1240.39 227.574 1240.49 226.965 1240.29 226.26Z" fill="white"/>
<path d="M1230.42 228.962C1230.3 228.864 1230.28 228.84 1230.24 228.777C1230.18 228.68 1230.15 228.544 1230.15 228.37C1230.15 228.095 1230.24 227.897 1230.43 227.764C1230.43 227.765 1230.7 227.53 1231.34 227.539C1231.78 227.545 1232.18 227.611 1232.18 227.611V229.032H1232.19C1232.19 229.032 1231.79 229.118 1231.34 229.145C1230.7 229.183 1230.42 228.961 1230.42 228.962ZM1231.67 226.765C1231.54 226.755 1231.38 226.75 1231.18 226.75C1230.91 226.75 1230.65 226.784 1230.41 226.849C1230.17 226.915 1229.95 227.017 1229.76 227.152C1229.57 227.288 1229.41 227.462 1229.3 227.668C1229.19 227.874 1229.14 228.116 1229.14 228.388C1229.14 228.665 1229.18 228.906 1229.28 229.102C1229.37 229.3 1229.51 229.464 1229.69 229.591C1229.86 229.718 1230.08 229.811 1230.32 229.867C1230.57 229.923 1230.85 229.951 1231.15 229.951C1231.47 229.951 1231.79 229.925 1232.1 229.872C1232.41 229.82 1232.79 229.744 1232.89 229.72C1232.99 229.696 1233.11 229.664 1233.11 229.664C1233.19 229.645 1233.18 229.562 1233.18 229.562L1233.18 226.702C1233.18 226.075 1233.01 225.61 1232.68 225.322C1232.35 225.035 1231.87 224.89 1231.25 224.89C1231.01 224.89 1230.63 224.922 1230.41 224.967C1230.41 224.967 1229.72 225.099 1229.44 225.319C1229.44 225.319 1229.38 225.358 1229.42 225.444L1229.64 226.038C1229.66 226.115 1229.74 226.089 1229.74 226.089C1229.74 226.089 1229.76 226.08 1229.79 226.064C1230.39 225.737 1231.15 225.746 1231.15 225.746C1231.49 225.746 1231.75 225.814 1231.93 225.949C1232.1 226.079 1232.18 226.277 1232.18 226.693V226.825C1231.91 226.787 1231.67 226.765 1231.67 226.765Z" fill="white"/>
<path d="M1256.89 225.154C1256.91 225.083 1256.86 225.049 1256.84 225.042C1256.79 225.021 1256.52 224.965 1256.32 224.952C1255.92 224.928 1255.71 224.994 1255.51 225.082C1255.32 225.169 1255.1 225.311 1254.98 225.471V225.091C1254.98 225.038 1254.94 224.995 1254.89 224.995H1254.09C1254.04 224.995 1254 225.038 1254 225.091V229.755C1254 229.807 1254.04 229.85 1254.1 229.85H1254.92C1254.97 229.85 1255.01 229.807 1255.01 229.755V227.425C1255.01 227.112 1255.05 226.8 1255.12 226.604C1255.18 226.41 1255.27 226.255 1255.39 226.144C1255.5 226.033 1255.63 225.955 1255.78 225.911C1255.92 225.867 1256.08 225.852 1256.19 225.852C1256.36 225.852 1256.54 225.895 1256.54 225.895C1256.6 225.901 1256.63 225.865 1256.65 225.81C1256.71 225.667 1256.86 225.239 1256.89 225.154Z" fill="white"/>
<path d="M1249.18 222.992C1249.08 222.962 1248.99 222.941 1248.87 222.919C1248.75 222.897 1248.61 222.886 1248.44 222.886C1247.88 222.886 1247.43 223.046 1247.12 223.361C1246.81 223.675 1246.6 224.152 1246.49 224.78L1246.45 224.991H1245.74C1245.74 224.991 1245.66 224.988 1245.64 225.082L1245.52 225.733C1245.51 225.794 1245.54 225.833 1245.62 225.833H1246.31L1245.61 229.746C1245.56 230.061 1245.5 230.32 1245.43 230.517C1245.36 230.711 1245.29 230.856 1245.21 230.962C1245.13 231.063 1245.05 231.139 1244.92 231.183C1244.81 231.219 1244.69 231.236 1244.55 231.236C1244.48 231.236 1244.38 231.223 1244.3 231.208C1244.23 231.193 1244.19 231.177 1244.13 231.153C1244.13 231.153 1244.05 231.123 1244.02 231.203C1244 231.27 1243.81 231.777 1243.79 231.839C1243.77 231.901 1243.8 231.949 1243.84 231.964C1243.93 231.996 1244 232.018 1244.12 232.048C1244.3 232.089 1244.44 232.091 1244.58 232.091C1244.87 232.091 1245.13 232.05 1245.35 231.972C1245.57 231.893 1245.76 231.755 1245.93 231.569C1246.11 231.368 1246.22 231.157 1246.33 230.869C1246.44 230.585 1246.53 230.231 1246.61 229.819L1247.31 225.833H1248.34C1248.34 225.833 1248.43 225.836 1248.45 225.742L1248.56 225.092C1248.57 225.029 1248.54 224.991 1248.46 224.991H1247.46C1247.47 224.969 1247.51 224.617 1247.63 224.286C1247.68 224.145 1247.77 224.03 1247.85 223.952C1247.92 223.875 1248.01 223.821 1248.11 223.789C1248.21 223.757 1248.32 223.742 1248.44 223.742C1248.54 223.742 1248.63 223.752 1248.7 223.767C1248.8 223.788 1248.83 223.798 1248.86 223.806C1248.96 223.837 1248.98 223.807 1249 223.758L1249.23 223.101C1249.26 223.031 1249.2 223.001 1249.18 222.992Z" fill="white"/>
<path d="M1235.21 229.755C1235.21 229.807 1235.17 229.849 1235.12 229.849H1234.29C1234.24 229.849 1234.2 229.807 1234.2 229.755V223.081C1234.2 223.029 1234.24 222.987 1234.29 222.987H1235.12C1235.17 222.987 1235.21 223.029 1235.21 223.081V229.755Z" fill="white"/>
<rect y="0.659912" width="462" height="288" fill="url(#paint3_linear_1_455)"/>
<rect x="938" y="0.659912" width="462" height="288" fill="url(#paint4_linear_1_455)"/>
<defs>
<linearGradient id="paint0_linear_1_455" x1="33.3282" y1="62.5592" x2="85.7552" y2="62.5592" gradientUnits="userSpaceOnUse">
<stop stop-opacity="0.1"/>
<stop offset="1" stop-opacity="0.2"/>
</linearGradient>
<linearGradient id="paint1_linear_1_455" x1="704.784" y1="216.521" x2="704.784" y2="228.958" gradientUnits="userSpaceOnUse">
<stop stop-color="#263238" stop-opacity="0.2"/>
<stop offset="1" stop-color="#263238" stop-opacity="0.02"/>
</linearGradient>
<radialGradient id="paint2_radial_1_455" cx="0" cy="0" r="1" gradientUnits="userSpaceOnUse" gradientTransform="translate(673.646 202.816) scale(63.1944 63.1254)">
<stop stop-color="white" stop-opacity="0.1"/>
<stop offset="1" stop-color="white" stop-opacity="0"/>
</radialGradient>
<linearGradient id="paint3_linear_1_455" x1="0" y1="144.66" x2="462" y2="144.66" gradientUnits="userSpaceOnUse">
<stop stop-color="#171923"/>
<stop offset="1" stop-color="#171923" stop-opacity="0"/>
</linearGradient>
<linearGradient id="paint4_linear_1_455" x1="1400" y1="144.66" x2="938" y2="144.66" gradientUnits="userSpaceOnUse">
<stop stop-color="#171923"/>
<stop offset="1" stop-color="#171923" stop-opacity="0"/>
</linearGradient>
</defs>
</svg>
